<?xml version="1.0" encoding="utf-8"?>
<!-- Generator: Adobe Illustrator 19.0.0, SVG Export Plug-In . SVG Version: 6.00 Build 0)  -->
<svg version="1.1" id="Capa_1" xmlns="http://www.w3.org/2000/svg" xmlns:xlink="http://www.w3.org/1999/xlink" x="0px" y="0px"
	 viewBox="0 0 50 50" style="enable-background:new 0 0 50 50;" xml:space="preserve">
<style type="text/css">
	.st0{fill:#FFFFFF;}
	.st1{fill:#1D1D1B;stroke:#1D1D1B;stroke-miterlimit:10;}
	.st2{fill:#1D1D1B;}
</style>
<g id="XMLID_28_">
	<g id="XMLID_55_">
		<circle id="XMLID_19_" class="st0" cx="25" cy="25.3" r="21"/>
		<path id="XMLID_56_" class="st1" d="M25,46.7c-11.8,0-21.4-9.6-21.4-21.4S13.2,3.9,25,3.9s21.4,9.6,21.4,21.4S36.8,46.7,25,46.7z
			 M25,4.6c-11.4,0-20.6,9.3-20.6,20.6S13.6,45.9,25,45.9s20.6-9.3,20.6-20.6S36.4,4.6,25,4.6z"/>
	</g>
	<g id="XMLID_50_">
		<g id="XMLID_53_">
			
				<rect id="XMLID_16_" x="20.2" y="36.7" transform="matrix(-0.9758 -0.2187 0.2187 -0.9758 31.6476 86.1274)" class="st2" width="0.8" height="9.2"/>
		</g>
		<g id="XMLID_51_">
			
				<rect id="XMLID_15_" x="24.5" y="40.9" transform="matrix(-0.2166 -0.9763 0.9763 -0.2166 -4.9771 78.6506)" class="st2" width="9.1" height="0.8"/>
		</g>
	</g>
	<g id="XMLID_45_">
		<g id="XMLID_48_">
			
				<rect id="XMLID_14_" x="16.2" y="8.5" transform="matrix(-0.2182 -0.9759 0.9759 -0.2182 16.3783 30.9737)" class="st2" width="8.8" height="0.8"/>
		</g>
		<g id="XMLID_46_">
			
				<rect id="XMLID_13_" x="28.7" y="4.7" transform="matrix(-0.9758 -0.2187 0.2187 -0.9758 55.5224 24.0691)" class="st2" width="0.8" height="8.5"/>
		</g>
	</g>
	<g id="XMLID_41_">
		<path id="XMLID_42_" class="st2" d="M39.9,37.2H10.2L10.1,37c-1.5-3.7-2.3-7.6-2.3-11.7c0-4.2,0.9-8.3,2.5-12.2l0.1-0.2h29.2
			l0.1,0.2c1.7,3.9,2.5,8,2.5,12.2c0,4-0.8,8-2.3,11.7L39.9,37.2z M10.7,36.4h28.6c1.4-3.5,2.2-7.3,2.2-11.1c0-4-0.8-8-2.4-11.7
			H10.9c-1.6,3.7-2.4,7.6-2.4,11.7C8.5,29.1,9.3,32.9,10.7,36.4z"/>
	</g>
	<g id="XMLID_37_">
		<path id="XMLID_38_" class="st2" d="M25.4,31.2c-5.8,0-11.5-0.6-17.1-1.7H8v-0.3c-0.2-1.3-0.2-2.6-0.2-3.9c0-1.4,0.1-2.8,0.3-4.1
			v-0.3l0.3-0.1c11-2.1,22.5-2,33.5,0.2l0.3,0.1v0.3c0.2,1.3,0.3,2.6,0.3,4c0,1.3-0.1,2.7-0.3,4v0.3l-0.3,0.1
			C36.4,30.7,30.9,31.2,25.4,31.2z M8.7,28.8c10.7,2.1,21.9,2.1,32.6,0.1c0.1-1.2,0.2-2.4,0.2-3.7c0-1.2-0.1-2.4-0.2-3.6
			c-10.7-2.1-21.9-2.1-32.6-0.1c-0.2,1.2-0.2,2.5-0.2,3.7C8.5,26.5,8.6,27.7,8.7,28.8z"/>
	</g>
	<g id="XMLID_35_">
		<rect id="XMLID_8_" x="10.3" y="9.7" class="st2" width="0.8" height="3.5"/>
	</g>
	<g id="XMLID_33_">
		<rect id="XMLID_7_" x="10.1" y="36.8" class="st2" width="0.8" height="3.7"/>
	</g>
	<g id="XMLID_31_">
		<polygon id="XMLID_6_" class="st2" points="40,40.1 39.2,40.6 39.2,36.8 40,36.8 		"/>
	</g>
	<g id="XMLID_29_">
		<polygon id="XMLID_5_" class="st2" points="39.8,13.2 39,13.2 39,9.8 39.8,9.8 		"/>
	</g>
</g>
<g id="XMLID_21_">
	<rect id="XMLID_4_" x="19.3" y="12" class="st0" width="13.5" height="30.4"/>
	<g id="XMLID_22_">
		<path id="XMLID_23_" class="st2" d="M19.8,42.2V8h5.4c1.8,0,3.1,0.5,3.9,1.4s1.2,2.4,1.2,4.5v6.9c0,2.1-0.7,3.4-2.1,3.8
			c0.7,0.1,1.2,0.5,1.7,1.1s0.7,1.5,0.7,2.7v8.1c0,2-0.5,3.5-1.4,4.4s-2.3,1.4-4.1,1.4h-5.3V42.2z M27.3,13.8c0-1-0.2-1.6-0.5-2
			s-0.9-0.6-1.6-0.6h-2.3v12.1h2.3c0.7,0,1.3-0.2,1.6-0.5c0.3-0.4,0.5-0.9,0.5-1.7V13.8z M27.5,28.8c0-1-0.1-1.7-0.4-2.1
			s-0.9-0.6-1.8-0.6H23v13h2.3c1.5,0,2.2-0.9,2.2-2.7C27.5,36.4,27.5,28.8,27.5,28.8z"/>
	</g>
</g>
</svg>
