<?xml version="1.0" encoding="utf-8"?>
<!-- Generator: Adobe Illustrator 23.0.3, SVG Export Plug-In . SVG Version: 6.00 Build 0)  -->
<svg version="1.1" id="Capa_1" xmlns="http://www.w3.org/2000/svg" xmlns:xlink="http://www.w3.org/1999/xlink" x="0px" y="0px"
	 viewBox="0 0 250 250" style="enable-background:new 0 0 250 250;" xml:space="preserve">
<style type="text/css">
	.st0{clip-path:url(#SVGID_2_);}
	.st1{fill:#31A9E1;}
	.st2{fill:#FFFFFF;}
	.st3{fill:#6ECAF3;}
	.st4{fill:#208CCD;}
	.st5{fill:#F8B582;}
	.st6{fill:#EE8A41;}
	.st7{fill:#92C167;}
	.st8{fill:#6DA63D;}
	.st9{fill:#1E1E1C;}
</style>
<g>
	<g>
		<defs>
			<circle id="SVGID_1_" cx="126" cy="132.76" r="113.94"/>
		</defs>
		<clipPath id="SVGID_2_">
			<use xlink:href="#SVGID_1_"  style="overflow:visible;"/>
		</clipPath>
		<g class="st0">
			<rect x="-34.49" y="-10.32" class="st1" width="344.66" height="223.77"/>
			<g>
				<ellipse class="st2" cx="4.71" cy="132.06" rx="20.06" ry="20.06"/>
				<circle class="st2" cx="173.33" cy="158.76" r="20.97"/>
				<circle class="st3" cx="128.46" cy="114.41" r="16.56"/>
				<ellipse class="st3" cx="43.59" cy="121.52" rx="9.79" ry="9.79"/>
				<ellipse class="st2" cx="92.88" cy="100.74" rx="8.71" ry="8.71"/>
				<circle class="st3" cx="316.44" cy="159.67" r="9.52"/>
				<circle class="st2" cx="-29.82" cy="115.34" r="4.17"/>
				<circle class="st2" cx="324.57" cy="143.08" r="4.17"/>
				<circle class="st2" cx="206.53" cy="105.47" r="4.17"/>
				<circle class="st3" cx="187.37" cy="116.88" r="8.92"/>
				<circle class="st3" cx="-20.17" cy="102.44" r="7.03"/>
				<ellipse class="st2" cx="86.42" cy="169.17" rx="33.92" ry="33.92"/>
			</g>
			<path class="st4" d="M133.29,184.58c1.67-3.5,3.81-4.35,5.43-5.35c0.83-0.51,4.04-2.05,4.77-3.51c0.3-0.61-0.08-3.37-0.68-3.97
				c-0.14-0.14-0.28-0.24-0.42-0.33l-0.61-0.26c-0.58-0.14-1.2-0.02-1.91,0.17c-1.53,0.41-1.3-1.61-2.29-1.88
				c-0.65-0.17-0.25-0.53-0.11-0.86c-0.12-0.21-0.61-0.3-0.72-0.49c-0.28-0.46,0.26-0.67,0.17-0.9c-0.23-0.6-1.97-0.52-1.85-1.19
				c0.21-1.16,2.07-3.49,1.75-4.22c-0.37-0.83-0.54-1.55-0.58-2.27h-0.01c-0.15-2.79,0.96-5.79,5.36-7.26
				c4.36-1.46,11.74,2.54,11.43,8.19c-0.24,4.47-3.08,7.07-3.08,7.07s-0.03,0.02-0.07,0.04c-0.12,0.62-0.21,1.25-0.26,1.9
				c-0.07,0.93,0.91,2.82,1.63,3.66c0.77,0.89,2.38,0.12,3.73-0.79c1.01-0.85,2.13-1.9,3.31-3.05c1.77-1.71,8.11-10.45,11.27-13.55
				c0.83-0.81,0.79-16.52-0.48-19.53c-1.83-4.35-3.72-4.93-5.13-7.66c-2.38-4.59,0.46-6.75,6-2.89c0.34,0.24,1.95,1.16,2.17,3.76
				c0.23,2.81,0.66,5.7,1.73,9.11c0.65,2.05,5.53,14.81,2.69,21.24c-0.69,1.57-5.75,8.07-6.89,10.72
				c-2.93,6.82-5.35,8.97-6.46,11.65c0.05,1.27,0.02,2.5-0.06,3.7c-0.21,3.14-0.79,6.01-1.27,8.4c-0.39,1.95-0.36,3.8-0.12,5.43
				h-16.54l-5.61-2.68c-0.43-1.18-1.3-2.69-2.17-4.53c-0.75,2.4-3.18,6.05-3.18,6.05l-9.15,3.18
				C125.06,201.67,131.62,188.08,133.29,184.58z"/>
			<path class="st4" d="M267.6,149.09c-0.94-2.98-0.62-4.56-0.82-7.02c-0.19-2.28-0.38-5.58-1.64-6.92
				c-4.05-4.3-5.04-0.44-4.17,4.84c0.43,2.65,0.87,3.27,2.47,7.08c1.1,2.63,1.14,16.36,0.42,17.08c-2.76,2.71-8.31,10.35-9.85,11.85
				c-0.7,0.68-1.37,1.31-2.01,1.89v-0.01l0,0c-1.29,0.83-2.64,1.44-3.56,1.37c-0.03-0.05-0.07-0.08-0.1-0.13
				c-0.35-0.61-1.46-2.98-1.35-4.06s0.34-2.1,0.61-3.07c0.09-0.05,0.14-0.08,0.14-0.08s3.13-2.7,3.36-6.93
				c0.29-5.35-6.69-9.13-10.82-7.75c-4.17,1.4-5.86,4.62-5.71,7.26h0.01c-0.12,1.02,0,1.94,0.47,3.07c0.29,0.7-1.52,2.87-1.74,3.96
				c-0.13,0.63,1.52,0.59,1.73,1.16c0.08,0.23-0.43,0.42-0.18,0.85c0.1,0.18,0.57,0.27,0.68,0.48c-0.14,0.31-0.52,0.64,0.09,0.82
				c0.93,0.27,0.68,2.17,2.13,1.82c0.6-0.15,1.14-0.23,1.64-0.15l0.92,0.42c0.07,0.06,0.14,0.12,0.21,0.19
				c0.56,0.58,0.76,3.15,0.57,3.77c-0.09,0.28-0.25,0.53-0.45,0.75c-0.03,0.01-0.05,0.03-0.08,0.04c-0.77,0.39-6-2.48-8.36-4.51
				c-0.58-0.5-6.1-12.97-6.1-12.97s-0.07-13.57-0.44-15.7c-0.36-2.13,3.28-9.49-1.82-10.86c-4-1.07-2.55,7.88-2.01,10.75
				c0.55,2.88-1.78,7.73-1.3,16.82c0.19,3.54,1.5,9.43,4.44,15.01c2.62,4.97,6.11,8.42,9.03,10.53c0.35,1.79,2.81,6.68,6.42,12.72
				h17.38c-0.14-1.44-0.1-3.05,0.28-4.72c0.5-2.26,1.91-9.04,1.74-12.6c0.97-2.34,1.57-3.13,4.14-9.09c1-2.32,3.88-7.46,4.48-8.83
				C270.89,162.58,268.16,150.88,267.6,149.09z"/>
			<path class="st4" d="M42.13,141.27c-0.89-0.08-5.12,1.28-7.4,3.05c-1.51,1.17-13.71,7.04-15.82,12.9
				c-0.52,1.43-1.26,8.7-2.16,11.1c-2.3,6.17-2.07,9.03-3,11.43c-0.81,0.78-1.55,1.6-2.23,2.41c-1.79,2.15-3.18,4.33-4.34,6.17
				c-1.38,2.18-3.2,3.68-4.81,4.62c-1.37,0.81-2.17,0.71-3.78,1.06c0,0.01,0,0.03,0,0.04l5.1,7.98h16.32c1-0.49,2.85-1.46,3.57-1.86
				c3.29-1.84,6.08-5.19,7.6-7.27c-0.13-0.82-1.29-4.29-0.9-5.17c0.17-0.39,1.13-1.25,1.95-1.75l1.16-0.36
				c0.91,0.07,1.4,0.69,1.91,1.52c0.73,1.2,1.82-0.24,2.62,0.2c0.52,0.28,0.49-0.18,0.6-0.48c0.21-0.06,0.58,0.18,0.76,0.13
				c0.46-0.12,0.24-0.59,0.45-0.68c0.51-0.25,1.58,0.87,1.92,0.37c0.57-0.87,0.81-3.51,1.47-3.78c0.82-0.33,1.34-0.43,1.78-0.71
				l0.01,0.01c2.15-1.5,3.07-5.21,1.14-9.14c-1.91-3.89-9.49-6.2-13.08-2.24c-2.43,2.68-2.78,6.49-2.16,8.38
				c-0.14,0.2-0.28,0.39-0.43,0.59c-1,1.28-3.31,2.04-4.09,1.89c-1.61-0.31-1.45-5.68-1.51-7.14c-0.08-2.19,1.2-11.68,1.08-15.6
				c-0.03-1.03,9.54-10.63,12.19-11.78c3.84-1.67,8.18-0.02,10.76-0.9C53.68,144.57,49.56,141.89,42.13,141.27z"/>
			<g>
				<path class="st5" d="M235.28,190.75c-2.3-1.35-4.91-3.5-6.89-6.62c-1.66-2.62-3.65-5.76-6.21-8.83
					c-0.98-1.17-2.03-2.33-3.19-3.46c-1.33-3.44-1.01-7.53-4.3-16.37c-1.28-3.43-2.35-13.84-3.09-15.89
					c-3.03-8.39-20.5-16.8-22.66-18.48c-3.27-2.54-9.32-4.48-10.59-4.37c-10.64,0.89-16.54,4.73-9.56,7.12
					c3.69,1.26,9.92-1.1,15.41,1.29c3.79,1.65,17.51,15.4,17.46,16.87c-0.18,5.62,1.67,19.21,1.55,22.34
					c-0.08,2.09,0.14,9.78-2.16,10.22c-1.11,0.21-4.42-0.87-5.85-2.7c-1.99-2.54-3.07-5.12-4.29-7.21c-1.07-1.84-4.42-6.99-9.36-6.4
					c-4.95,0.59-9.26,7.28-9.61,9.69c-0.34,2.42,0.26,4.51,1.32,6.16c1,1.57,1.79,1.43,3.68,2.21c0.94,0.38,1.28,4.17,2.1,5.41
					c0.48,0.72,2.01-0.88,2.74-0.53c0.29,0.14-0.01,0.8,0.64,0.98c0.27,0.07,0.8-0.28,1.09-0.19c0.16,0.43,0.11,1.1,0.86,0.69
					c1.15-0.62,2.7,1.43,3.75-0.29c0.79-1.29,1.55-2.22,3.07-2.19c1.08,0.02,3.77,2.25,4.11,3.04c0.55,1.26-1.1,6.24-1.3,7.41
					c2.18,2.97,6.18,7.77,10.88,10.41c1.03,0.58,3.68,1.96,5.12,2.67h23.37l7.31-11.42c0-0.02,0-0.04,0-0.05
					C238.39,191.77,237.25,191.91,235.28,190.75z"/>
				<path class="st6" d="M214.36,167.02c-0.53,1.84-1.81,4.72-0.66,6.66c1.16,1.94,4.09,1.54,4.28,1.32
					C218.9,173.91,214.36,167.02,214.36,167.02z"/>
				<g>
					<g>
						<path class="st7" d="M172.75,162.25c2.74-5.58,13.6-8.87,18.74-3.21c4.06,4.48,4.07,11.19,2.55,13.11
							c-0.32-1.51-0.86-3.65-1.72-6.12c-1.68-4.83-4.87-6.6-9.08-6.1c-4.21,0.51-7.26,3.43-7.93,7.57c-0.5,3.11,1.17,4.84,2.04,5.51
							c-1.7,0.52-2.97,2.31-2.97,2.31C171.3,173.18,169.98,167.88,172.75,162.25z"/>
						<path class="st8" d="M174.98,167.24c0.67-4.15,4.17-7.21,8.38-7.71c4.21-0.51,7.33,1.48,9.39,5.92
							c1.1,2.37,1.27,4.62,1.27,6.71c-0.74,1.53-1.84,3.38-3.42,5.14c-5.43-5.37-10.98-4.95-13.89-4.06
							C175.78,172.34,174.48,170.35,174.98,167.24z"/>
					</g>
					<polygon class="st8" points="189.54,175.98 190.84,180.23 192.54,180.77 190.88,176.02 					"/>
				</g>
			</g>
			<g>
				<path class="st5" d="M128.07,120.4c-1.34-4.25-0.88-6.52-1.17-10.03c-0.27-3.25-0.54-7.96-2.35-9.88
					c-5.78-6.14-7.19-0.63-5.96,6.92c0.62,3.79,1.24,4.68,3.52,10.11c1.58,3.75,1.63,23.37,0.59,24.39
					c-3.94,3.87-11.86,14.78-14.07,16.92c-1,0.97-1.96,1.88-2.87,2.7v-0.01l0,0c-1.84,1.18-3.77,2.06-5.09,1.96
					c-0.05-0.07-0.1-0.11-0.14-0.19c-0.51-0.86-2.08-4.25-1.93-5.8c0.34-3.42,1.57-6.52,2.23-9c0.58-2.19,1.93-8.59-2.24-11.86
					s-12.44-1.48-14.52,0.09c-2.07,1.56-2.58,2.55-3.03,4.59c-0.42,1.93-0.34,3.47,0.5,5.47c0.42,0.99-2.17,4.1-2.48,5.65
					c-0.18,0.9,2.17,0.84,2.46,1.66c0.12,0.32-0.61,0.59-0.25,1.22c0.15,0.26,0.81,0.39,0.96,0.68c-0.2,0.45-0.74,0.91,0.13,1.17
					c1.33,0.39,0.97,3.11,3.04,2.6c1.57-0.38,2.84-0.51,3.96,0.66c0.79,0.82,1.09,4.5,0.81,5.38c-0.13,0.4-0.36,0.76-0.64,1.07
					c-0.04,0.02-0.07,0.04-0.11,0.06c-1.09,0.56-8.56-3.54-11.94-6.44c-0.83-0.72-8.72-18.53-8.72-18.53s-0.11-19.38-0.63-22.42
					s4.69-13.55-2.6-15.51c-5.71-1.53-3.65,11.25-2.87,15.36c0.78,4.11-2.54,11.04-1.85,24.03c0.27,5.06,2.14,13.47,6.35,21.44
					c3.74,7.09,8.73,12.03,12.89,15.04c0.5,2.55,4.01,9.54,9.17,18.17h24.83c-0.2-2.06-0.14-4.35,0.39-6.74
					c0.72-3.22,2.73-12.92,2.48-18c1.39-3.35,2.25-4.46,5.91-12.98c1.42-3.31,5.54-10.66,6.4-12.62
					C132.78,139.67,128.88,122.96,128.07,120.4z"/>
				<path class="st6" d="M116.92,162.66c-1.78,0.99-4.92,2.2-5.5,4.53s1.92,4.24,2.23,4.21
					C115.16,171.25,116.92,162.66,116.92,162.66z"/>
				<path class="st6" d="M81.6,177.08c0,0,0.39,2.42,3.34,4.87s7.12,2.78,7.12,2.78l-4.85,2.06
					C87.22,186.79,79.97,182.22,81.6,177.08z"/>
				<path class="st6" d="M108.02,171.64c0,0,0.65,2.37-1.01,5.82c-1.67,3.45-5.32,5.49-5.32,5.49l5.27-0.14
					C106.95,182.81,111.65,175.63,108.02,171.64z"/>
				<g>
					<g>
						<path class="st7" d="M89.01,132.02c5.89-1.97,15.87,3.43,15.45,11.07c-0.33,6.04-4.8,9.9-4.8,9.9s-0.63,0.42-2.73,1.14
							c0.85-1.29,1.99-3.18,3.14-5.52c2.25-4.59,1.27-8.11-2.05-10.74s-7.54-2.75-10.96-0.31c-2.56,1.83-2.62,4.24-2.48,5.33
							c-1.57-0.85-3.73-0.49-3.73-0.49C80.64,138.62,83.06,134.02,89.01,132.02z"/>
						<path class="st8" d="M87.03,137.12c3.42-2.44,8.06-2.1,11.38,0.54s4.1,6.25,2.39,10.84c-0.91,2.45-2.39,4.15-3.87,5.62
							c-1.61,0.55-3.7,1.07-6.07,1.18c0-7.63-4.21-11.29-6.88-12.73C83.97,141.27,84.47,138.95,87.03,137.12z"/>
					</g>
					<polygon class="st8" points="91.06,153.63 87.73,159.52 89.07,160.14 91.97,154.6 					"/>
				</g>
			</g>
			<g>
				<path class="st3" d="M-49.87,200.22c0,0,20.68-16.99,39.54-12.77c24.34,5.45,33.42,12.51,51.32,12.77
					c17.9,0.25,28.21-7.32,44.5-8.89c16.29-1.58,25.7,5.64,43.2,6.63c17.51,0.99,31.35-7.93,53.28-7.05
					c21.93,0.89,30.08,13.14,49.49,9.31s35.88-12.64,47.3-12.83c11.43-0.19,16.02,1.24,16.02,1.24v27.17H-49.87V200.22z"/>
				<g>
					<path class="st2" d="M-35.19,201.31c0,0,7.28-6.83,14.46-5.99s11.22,3.66,19.46,6.13c10.69,3.21,20.32-2.08,20.32-2.08
						s-9.29,10.77-21.04,7.98c-11.76-2.79-13.47-7.86-22.75-8.06C-27.82,199.24-35.19,201.31-35.19,201.31z"/>
					<path class="st2" d="M-44.68,204.67c0,0,4.22-3.56,9.49-4.11s13.3,3.48,15.62,4.11c7.74,2.12,12.72,0,12.72,0
						s-4.66,6.37-12.72,4.91c-8.06-1.46-8.25-5.12-16.39-6.15C-39.3,203.01-44.68,204.67-44.68,204.67z"/>
				</g>
				<g>
					<path class="st2" d="M93.22,202.07c0,0,6.84-4.2,12.92-1.9c9.77,3.69,13.43,6.39,20.57,5.03c7.13-1.35,11.14-3.49,11.14-3.49
						s-8.69,10.16-22.22,7.69C101.03,206.74,104.67,200.28,93.22,202.07z"/>
					<path class="st2" d="M74.64,202.36c0,0,5.15-4.66,9.52-4.41c5.46,0.31,7.07,2,12.37,4.91c7.05,3.87,15.95,1.66,16.02,1.52
						s-6.03,5.92-14.31,3.46c-6.97-2.07-5.94-4.39-14.59-7.16C79.8,199.44,74.64,202.36,74.64,202.36z"/>
				</g>
				<g>
					<path class="st2" d="M206.23,196.8c0,0,10.63,7.52,22.69,6.26c10.54-1.1,23.88-8.82,23.88-8.82S228.43,203.77,206.23,196.8z"/>
					<path class="st2" d="M199.18,198.13c0,0,7.93,4.23,13.58,6.75c13.09,5.82,24.02-0.55,24.02-0.55s-6.26,7.48-18.14,6.23
						C210.67,209.72,203.38,202.6,199.18,198.13z"/>
				</g>
			</g>
			<g>
				<path class="st3" d="M-49.87,214.73c0,0,20.68-16.99,39.54-12.77c24.34,5.45,33.42,12.51,51.32,12.77
					c17.9,0.25,28.21-7.32,44.5-8.89c16.29-1.58,25.7,5.64,43.2,6.63c17.51,0.99,31.35-7.93,53.28-7.05
					c21.93,0.89,30.08,13.14,49.49,9.31s35.88-12.64,47.3-12.83c11.43-0.19,16.02,1.24,16.02,1.24v27.17H-49.87V214.73z"/>
				<g>
					<path class="st2" d="M-35.19,215.82c0,0,7.28-6.83,14.46-5.99s11.22,3.66,19.46,6.13c10.69,3.21,20.32-2.08,20.32-2.08
						s-9.29,10.77-21.04,7.98c-11.76-2.79-13.47-7.86-22.75-8.06C-27.82,213.75-35.19,215.82-35.19,215.82z"/>
					<path class="st2" d="M-44.68,219.17c0,0,4.22-3.56,9.49-4.11s13.3,3.48,15.62,4.11c7.74,2.12,12.72,0,12.72,0
						s-4.66,6.37-12.72,4.91c-8.06-1.46-8.25-5.12-16.39-6.15C-39.3,217.51-44.68,219.17-44.68,219.17z"/>
				</g>
				<g>
					<path class="st2" d="M93.22,216.58c0,0,6.84-4.2,12.92-1.9c9.77,3.69,13.43,6.39,20.57,5.03c7.13-1.35,11.14-3.49,11.14-3.49
						s-8.69,10.16-22.22,7.69C101.03,221.25,104.67,214.78,93.22,216.58z"/>
					<path class="st2" d="M74.64,216.86c0,0,5.15-4.66,9.52-4.41c5.46,0.31,7.07,2,12.37,4.91c7.05,3.87,15.95,1.66,16.02,1.52
						s-6.03,5.92-14.31,3.46c-6.97-2.07-5.94-4.39-14.59-7.16C79.8,213.95,74.64,216.86,74.64,216.86z"/>
				</g>
				<g>
					<path class="st2" d="M206.23,211.3c0,0,10.63,7.52,22.69,6.26c10.54-1.1,23.88-8.82,23.88-8.82S228.43,218.28,206.23,211.3z"/>
					<path class="st2" d="M199.18,212.63c0,0,7.93,4.23,13.58,6.75c13.09,5.82,24.02-0.55,24.02-0.55s-6.26,7.48-18.14,6.23
						C210.67,224.23,203.38,217.11,199.18,212.63z"/>
				</g>
			</g>
			<g>
				<path class="st3" d="M-49.87,231.13c0,0,20.68-16.99,39.54-12.77c24.34,5.45,33.42,12.51,51.32,12.77
					c17.9,0.25,28.21-7.32,44.5-8.89c16.29-1.58,25.7,5.64,43.2,6.63c17.51,0.99,31.35-7.93,53.28-7.05
					c21.93,0.89,30.08,13.14,49.49,9.31s35.88-12.64,47.3-12.83c11.43-0.19,16.02,1.24,16.02,1.24v27.17H-49.87V231.13z"/>
				<g>
					<path class="st2" d="M-35.19,232.22c0,0,7.28-6.83,14.46-5.99s11.22,3.66,19.46,6.13c10.69,3.21,20.32-2.08,20.32-2.08
						s-9.29,10.77-21.04,7.98c-11.76-2.79-13.47-7.86-22.75-8.06C-27.82,230.15-35.19,232.22-35.19,232.22z"/>
					<path class="st2" d="M-44.68,235.57c0,0,4.22-3.56,9.49-4.11s13.3,3.48,15.62,4.11c7.74,2.12,12.72,0,12.72,0
						s-4.66,6.37-12.72,4.91c-8.06-1.46-8.25-5.12-16.39-6.15C-39.3,233.91-44.68,235.57-44.68,235.57z"/>
				</g>
				<g>
					<path class="st2" d="M93.22,232.98c0,0,6.84-4.2,12.92-1.9c9.77,3.69,13.43,6.39,20.57,5.03c7.13-1.35,11.14-3.49,11.14-3.49
						s-8.69,10.16-22.22,7.69C101.03,237.65,104.67,231.19,93.22,232.98z"/>
					<path class="st2" d="M74.64,233.27c0,0,5.15-4.66,9.52-4.41c5.46,0.31,7.07,2,12.37,4.91c7.05,3.87,15.95,1.66,16.02,1.52
						s-6.03,5.92-14.31,3.46c-6.97-2.07-5.94-4.39-14.59-7.16C79.8,230.35,74.64,233.27,74.64,233.27z"/>
				</g>
				<g>
					<path class="st2" d="M206.23,227.7c0,0,10.63,7.52,22.69,6.26c10.54-1.1,23.88-8.82,23.88-8.82S228.43,234.68,206.23,227.7z"/>
					<path class="st2" d="M199.18,229.04c0,0,7.93,4.23,13.58,6.75c13.09,5.82,24.02-0.55,24.02-0.55s-6.26,7.48-18.14,6.23
						C210.67,240.63,203.38,233.51,199.18,229.04z"/>
				</g>
			</g>
		</g>
	</g>
</g>
<g id="XMLID_29_">
	<g id="XMLID_80_">
		<g id="XMLID_89_">
			<path id="XMLID_28_" class="st9" d="M153.55,17.25c0-1.55-0.13-3.1-0.26-4.53C145.01,9.1,135.7,7.16,126,7.16
				S107.12,9.1,98.71,12.6c-0.13,1.55-0.13,3.1-0.13,4.66c0,20.04,11.12,37.5,27.55,46.56C142.42,54.62,153.55,37.3,153.55,17.25z"
				/>
		</g>
		<g id="XMLID_85_">
			<path id="XMLID_86_" class="st9" d="M126,65.1l-0.65-0.39c-17.2-9.44-28.06-27.67-28.06-47.46c0-1.55,0.13-3.1,0.26-4.66v-0.78
				l0.78-0.26c8.79-3.61,18.1-5.55,27.8-5.55c9.57,0,18.88,1.81,27.67,5.56l0.65,0.26v0.78c0.13,1.55,0.26,3.1,0.26,4.66
				c0,19.79-10.73,38.02-28.19,47.59L126,65.1z M99.88,13.5c0,1.29-0.13,2.46-0.13,3.75c0,18.62,10.09,35.95,26.25,45.13
				c16.17-9.18,26.25-26.51,26.25-45.13c0-1.16,0-2.46-0.13-3.75c-8.28-3.36-17.07-5.04-26.12-5.04S108.28,10.14,99.88,13.5z"/>
		</g>
		<g id="XMLID_81_">
			<path id="XMLID_82_" class="st2" d="M126,64.19l-0.26-0.13C108.8,54.62,98.2,36.65,98.2,17.25c0-1.55,0.13-2.97,0.26-4.53v-0.26
				l0.26-0.13c8.54-3.75,17.85-5.56,27.29-5.56c9.57,0,18.75,1.81,27.42,5.43l0.26,0.13v0.26c0.13,1.55,0.26,3.1,0.26,4.53
				c0,19.53-10.6,37.5-27.67,46.94L126,64.19z M99.1,12.98c-0.13,1.42-0.13,2.85-0.13,4.27c0,19.14,10.35,36.73,27.03,46.04
				c16.68-9.31,27.03-26.9,27.03-46.04c0-1.42,0-2.85-0.13-4.27c-8.54-3.49-17.59-5.3-26.9-5.3C116.69,7.55,107.64,9.36,99.1,12.98z
				"/>
		</g>
	</g>
	<g id="XMLID_40_">
		<g id="XMLID_48_">
			<g id="XMLID_75_">
				<circle id="XMLID_23_" class="st2" cx="126" cy="44.15" r="13.32"/>
				<path id="XMLID_76_" class="st2" d="M126,57.6c-7.5,0-13.45-6.08-13.45-13.45S118.63,30.7,126,30.7
					c7.5,0,13.45,6.08,13.45,13.45S133.5,57.6,126,57.6z M126,31.09c-7.24,0-13.06,5.82-13.06,13.06s5.82,13.06,13.06,13.06
					c7.24,0,13.06-5.82,13.06-13.06S133.24,31.09,126,31.09z"/>
			</g>
			<g id="XMLID_70_">
				<g id="XMLID_73_">
					
						<rect id="XMLID_20_" x="119.84" y="54.44" transform="matrix(0.2187 -0.9758 0.9758 0.2187 42.8391 162.8946)" class="st9" width="6.6" height="0.52"/>
				</g>
				<g id="XMLID_71_">
					
						<rect id="XMLID_19_" x="128.36" y="51.37" transform="matrix(0.9758 -0.2186 0.2186 0.9758 -8.8403 29.4389)" class="st9" width="0.52" height="6.6"/>
				</g>
			</g>
			<g id="XMLID_65_">
				<g id="XMLID_68_">
					
						<rect id="XMLID_18_" x="122.89" y="30.01" transform="matrix(0.9758 -0.2186 0.2186 0.9758 -4.3032 27.7265)" class="st9" width="0.52" height="6.6"/>
				</g>
				<g id="XMLID_66_">
					
						<rect id="XMLID_17_" x="125.43" y="32.96" transform="matrix(0.2187 -0.9758 0.9758 0.2187 68.1585 151.5671)" class="st9" width="6.6" height="0.52"/>
				</g>
			</g>
			<g id="XMLID_61_">
				<path id="XMLID_62_" class="st9" d="M135.44,51.65h-18.75v-0.13c-1.03-2.33-1.42-4.78-1.42-7.37c0-2.72,0.52-5.3,1.55-7.76
					v-0.13h18.49v0.13c1.03,2.46,1.55,5.04,1.55,7.76c0,2.59-0.52,5.04-1.42,7.37L135.44,51.65z M116.95,51.13h18.11
					c0.91-2.2,1.42-4.66,1.42-6.98c0-2.59-0.52-5.04-1.55-7.37h-17.85c-1.03,2.33-1.55,4.78-1.55,7.37
					C115.65,46.61,116.04,48.93,116.95,51.13z"/>
			</g>
			<g id="XMLID_57_">
				<path id="XMLID_58_" class="st9" d="M126.26,47.9c-3.62,0-7.24-0.39-10.86-1.03h-0.13v-0.13c-0.13-0.78-0.13-1.68-0.13-2.46
					c0-0.91,0-1.68,0.13-2.59v-0.13h0.13c6.98-1.29,14.23-1.29,21.08,0.13h0.13v0.13c0.13,0.78,0.13,1.68,0.13,2.46
					c0,0.91,0,1.68-0.13,2.59V47h-0.13C133.24,47.51,129.75,47.9,126.26,47.9z M115.78,46.35c6.72,1.29,13.84,1.29,20.56,0.13
					c0.13-0.78,0.13-1.55,0.13-2.33s0-1.55-0.13-2.2c-6.72-1.29-13.84-1.29-20.56-0.13c-0.13,0.78-0.13,1.55-0.13,2.33
					C115.65,44.93,115.65,45.7,115.78,46.35z"/>
			</g>
			<g id="XMLID_55_">
				<rect id="XMLID_12_" x="116.69" y="33.03" class="st9" width="0.52" height="3.49"/>
			</g>
			<g id="XMLID_53_">
				<rect id="XMLID_11_" x="116.56" y="51.39" class="st9" width="0.52" height="2.97"/>
			</g>
			<g id="XMLID_51_">
				<rect id="XMLID_10_" x="135.05" y="51.39" class="st9" width="0.52" height="2.97"/>
			</g>
			<g id="XMLID_49_">
				<rect id="XMLID_9_" x="134.79" y="33.16" class="st9" width="0.52" height="3.36"/>
			</g>
		</g>
		<g id="XMLID_41_">
			<rect id="XMLID_8_" x="122.38" y="35.74" class="st2" width="8.54" height="19.14"/>
			<g id="XMLID_42_">
				<path id="XMLID_43_" class="st9" d="M122.77,54.75v-21.6h3.49c1.16,0,1.94,0.26,2.46,0.91c0.52,0.52,0.78,1.55,0.78,2.85v4.4
					c0,1.29-0.39,2.2-1.29,2.33c0.39,0.13,0.78,0.26,1.16,0.65c0.26,0.39,0.52,0.91,0.52,1.68v5.17c0,1.29-0.26,2.2-0.91,2.72
					c-0.52,0.52-1.42,0.91-2.59,0.91C126.39,54.75,122.77,54.75,122.77,54.75z M127.42,36.91c0-0.65-0.13-1.03-0.26-1.29
					c-0.26-0.26-0.52-0.39-1.03-0.39h-1.42v7.63h1.42c0.52,0,0.78-0.13,1.03-0.39c0.26-0.26,0.26-0.65,0.26-1.16V36.91z
					 M127.55,46.35c0-0.65-0.13-1.03-0.26-1.29c-0.13-0.26-0.52-0.39-1.16-0.39h-1.42v8.15h1.42c0.91,0,1.42-0.52,1.42-1.68
					C127.55,51.14,127.55,46.35,127.55,46.35z"/>
			</g>
		</g>
	</g>
	<g id="XMLID_30_">
		<g id="XMLID_31_">
			<path id="XMLID_38_" class="st2" d="M111.9,29.02c-0.13-0.65-0.26-1.29-0.39-2.07c-0.13-0.78-0.26-1.55-0.39-2.46
				s-0.26-1.68-0.39-2.59s-0.26-1.68-0.39-2.33c-0.13-0.78-0.26-1.42-0.26-1.94c-0.13-0.52-0.13-0.91-0.13-1.16
				c0,0.26-0.13,0.65-0.13,1.29c-0.13,0.52-0.13,1.29-0.26,2.07c-0.13,0.78-0.26,1.68-0.39,2.59s-0.26,1.81-0.52,2.72
				c-0.13,0.91-0.39,1.81-0.52,2.72s-0.26,1.55-0.52,2.33c-1.42,0.39-2.07,0.52-3.36,0.91c-1.16-5.43-2.2-10.86-3.36-16.42
				c1.03-0.52,1.55-0.65,2.72-1.03c0.13,0.65,0.26,1.42,0.52,2.2c0.13,0.78,0.26,1.68,0.52,2.59c0.13,0.91,0.26,1.81,0.39,2.59
				c0.13,0.91,0.26,1.68,0.39,2.46s0.26,1.42,0.39,1.94s0.13,1.03,0.26,1.29c0-0.26,0.13-0.78,0.26-1.42
				c0.13-0.65,0.26-1.29,0.39-2.2c0.13-0.78,0.26-1.68,0.52-2.59c0.13-0.91,0.39-1.94,0.52-2.85c0.13-1.03,0.39-1.94,0.52-2.85
				s0.39-1.81,0.52-2.46c1.16-0.26,1.68-0.39,2.85-0.65c0.78,4.4,1.55,8.92,2.33,13.32c0-0.26,0.13-0.78,0.26-1.29
				c0.13-0.65,0.26-1.29,0.39-2.07c0.13-0.78,0.26-1.68,0.52-2.59c0.13-0.91,0.39-1.81,0.52-2.85c0.13-0.91,0.39-1.94,0.52-2.85
				s0.39-1.68,0.52-2.46c1.16-0.13,1.81-0.26,2.97-0.39c-1.29,5.95-2.59,11.9-3.88,17.98C113.97,28.63,113.33,28.76,111.9,29.02z"/>
			<path id="XMLID_36_" class="st2" d="M121.09,27.86c0-5.82,0-11.64,0-17.46c2.72-0.13,5.43-0.26,8.15,0c0,0.65,0,1.03,0,1.68
				c-1.81-0.13-3.62-0.13-5.3-0.13c0,2.07,0,4.14,0,6.21c1.55,0,2.2,0,3.75,0c0,0.65,0,0.91,0,1.55c-1.55,0-2.2,0-3.75,0
				c0,2.2,0,4.4,0,6.47c1.81,0,3.62,0,5.56,0.13c0,0.65,0,0.91,0,1.55C126.78,27.73,123.93,27.73,121.09,27.86z"/>
			<path id="XMLID_34_" class="st2" d="M134.15,28.24c0-5.3,0-10.6,0-15.91c-1.29-0.13-2.07-0.26-3.36-0.26c0-0.65,0-1.03,0-1.68
				c3.23,0.26,6.47,0.65,9.7,1.29c0,0.65,0,1.03,0,1.68c-1.42-0.26-2.07-0.39-3.36-0.65c0,5.3,0,10.6,0,15.91
				C135.83,28.37,135.31,28.37,134.15,28.24z"/>
			<path id="XMLID_32_" class="st2" d="M147.98,25.92c0-0.26,0-0.52,0-0.65s-0.13-0.39-0.13-0.52c-0.13-0.13-0.13-0.26-0.26-0.39
				c-0.13-0.13-0.26-0.26-0.39-0.52c-0.78-0.78-1.68-1.55-2.59-2.33s-1.68-1.29-2.2-1.94c-0.26-0.26-0.39-0.39-0.52-0.65
				c-0.13-0.13-0.26-0.39-0.26-0.52c-0.13-0.13-0.13-0.39-0.13-0.65s0-0.52,0-0.78c0-1.03,0-1.55,0-2.59c0-2.46,3.23-2.2,4.78-1.68
				s2.72,1.03,3.49,1.81c0.65,0.65,1.03,1.55,1.03,2.59c0,1.29,0,1.94,0,3.23c-1.03-0.39-1.55-0.52-2.59-0.91c0-1.16,0-1.81,0-2.97
				c0-0.39-0.13-0.78-0.39-1.16c-0.26-0.39-0.78-0.65-1.55-0.91c-1.29-0.39-1.94-0.13-1.94,0.78c0,1.03,0,1.55,0,2.59
				c0,0.39,0,0.65,0.13,0.91c0.13,0.13,0.26,0.39,0.52,0.65c0.26,0.39,0.65,0.65,1.16,1.03c0.39,0.39,0.78,0.78,1.29,1.16
				c0.39,0.39,0.78,0.78,1.16,1.03c0.39,0.39,0.78,0.65,1.03,1.03c0.26,0.26,0.39,0.52,0.65,0.78c0.13,0.26,0.26,0.52,0.39,0.65
				c0.13,0.26,0.13,0.52,0.26,0.78c0,0.26,0.13,0.65,0.13,1.03c0,1.03,0,1.55,0,2.46c0,0.91-0.39,1.55-1.03,1.81
				c-0.65,0.26-1.94,0.13-3.62-0.39s-2.85-1.03-3.62-1.68c-0.78-0.65-1.16-1.42-1.16-2.46c0-1.55,0-2.2,0-3.75
				c1.03,0.26,1.68,0.39,2.72,0.65c0,1.42,0,2.07,0,3.49c0,0.52,0.13,0.91,0.39,1.16c0.26,0.39,0.78,0.65,1.55,0.91
				c0.65,0.26,1.16,0.26,1.42,0.13c0.26-0.13,0.39-0.39,0.39-0.78C147.98,27.47,147.98,26.95,147.98,25.92z"/>
		</g>
	</g>
</g>
</svg>
