<?xml version="1.0" encoding="utf-8"?>
<!-- Generator: Adobe Illustrator 23.0.3, SVG Export Plug-In . SVG Version: 6.00 Build 0)  -->
<svg version="1.1" id="Capa_1" xmlns="http://www.w3.org/2000/svg" xmlns:xlink="http://www.w3.org/1999/xlink" x="0px" y="0px"
	 viewBox="0 0 512 512" style="enable-background:new 0 0 512 512;" xml:space="preserve">
<style type="text/css">
	.st0{fill:#FFA627;}
	.st1{opacity:0.25;fill:#36393B;}
	.st2{fill:#FFFFFF;}
	.st3{fill:#FFA627;stroke:#000000;stroke-width:7;stroke-linecap:round;stroke-linejoin:round;stroke-miterlimit:10;}
	.st4{opacity:0.15;fill:#36393B;}
	.st5{fill:none;stroke:#000000;stroke-width:13;stroke-linecap:round;stroke-linejoin:round;stroke-miterlimit:10;}
	.st6{opacity:0.07;fill:#FFFFFF;}
	.st7{opacity:0.1;fill:#36393B;}
	.st8{fill:none;stroke:#000000;stroke-width:12;stroke-linecap:round;stroke-linejoin:round;stroke-miterlimit:10;}
	.st9{fill:none;stroke:#000000;stroke-width:10;stroke-linecap:round;stroke-linejoin:round;stroke-miterlimit:10;}
</style>
<g>
	<polygon class="st0" points="333.57,342.6 208.23,271.29 254.54,191.38 346.21,252.92 	"/>
	<polygon class="st1" points="333.57,342.6 208.23,271.29 254.54,191.38 346.21,252.92 	"/>
	<path class="st0" d="M453.46,274.44c-30.91,56.84-84.59,87.36-119.89,68.16c-35.3-19.2-38.87-80.84-7.95-137.68
		c30.91-56.84,84.59-87.36,119.89-68.16C480.81,155.95,484.37,217.6,453.46,274.44z"/>
	
		<ellipse transform="matrix(0.4777 -0.8785 0.8785 0.4777 -15.2702 311.718)" class="st0" cx="254.54" cy="168.7" rx="117.15" ry="72.77"/>
	<polygon class="st0" points="186.09,142.81 37.5,364.1 123.36,416.21 338.19,184.87 	"/>
	<polygon class="st0" points="123.36,416.21 145.7,444.5 305.07,270.13 338.19,184.87 	"/>
	<polygon class="st0" points="37.5,363.6 59.83,391.89 217.24,219.67 252.33,132.26 	"/>
	<polygon class="st2" points="59.83,391.89 145.7,444.5 123.36,416.21 37.5,363.6 	"/>
	<polygon class="st3" points="56.85,395.83 144.91,448.29 117.84,415.39 34.34,363.6 	"/>
	<path class="st0" d="M407.26,115.89c0,17.45-16.52,31.6-36.89,31.6c-20.38,0-36.89-14.15-36.89-31.6c0-17.45,16.52-31.6,36.89-31.6
		C390.74,84.29,407.26,98.44,407.26,115.89z"/>
	<path class="st4" d="M407.26,115.89c0,17.45-16.52,31.6-36.89,31.6c-20.38,0-36.89-14.15-36.89-31.6c0-17.45,16.52-31.6,36.89-31.6
		C390.74,84.29,407.26,98.44,407.26,115.89z"/>
	<polygon class="st0" points="337.56,100.66 445.12,166.57 437.82,133.44 309.58,65.22 	"/>
	<path class="st0" d="M268.78,70.78l59.6,12.08l78.87,49.41l-4.96,47.21l-77.67,39.21c0,0-69.94-35.74-70.08-37.23
		C254.39,179.97,268.78,70.78,268.78,70.78z"/>
	<path class="st5" d="M445.5,136.76c-30.89-16.8-75.85,4.46-107.31,48.12l0,0L123.36,416.21l22.33,28.29l159.37-174.37l0.01-0.01
		c-2.9,32.87,6.8,60.69,28.49,72.48c35.3,19.2,88.98-11.32,119.89-68.16C484.37,217.6,480.81,155.95,445.5,136.76z"/>
	<path class="st6" d="M257.33,79.33c10.09-5.23,21.14-9.36,32.49-9c8.12,0.25,16.01,2.79,23.45,6.04
		c26.86,11.74,49.18,32.92,77.06,41.99c2.34,0.76,5.01,1.69,5.91,3.98c0.89,2.24-0.37,4.73-1.76,6.7
		c-6.07,8.58-15.25,14.34-24.18,19.88c-8.22,5.1-16.53,10.24-25.7,13.32c-21.98,7.4-45.94,2.22-68.76-1.94
		c-19.97-3.64-40.1-6.44-60.31-8.4c-4.2-0.41-8.53-0.82-12.23-2.83c-3.7-2.01-6.64-6.09-5.95-10.25c0.37-2.24,1.71-4.18,3.05-6.01
		C216.39,110.97,232.83,92.04,257.33,79.33z"/>
	<path class="st6" d="M356,102.89c9.54,5.24,21.14,11.64,21.35,22.52c0.14,7.55-6.07,14.18-13.29,16.36
		c-7.23,2.18-15.11,0.65-22.09-2.21c-6.98-2.86-13.36-7.01-20.13-10.33c-9.66-4.74-20.1-7.82-29.57-12.93
		c-9.47-5.11-18.25-12.86-21.17-23.22c-5.9-20.97,11.67-30.59,28.48-23.82C319.98,77.47,336.85,92.38,356,102.89z"/>
	<path class="st6" d="M72.5,325c-5.81,7.58-12.15,15.75-12.35,25.3c-0.2,9.55,9.59,19.54,18.27,15.55c2.14-0.98,3.87-2.64,5.55-4.29
		c16.4-16.16,30.83-34.31,42.94-53.88c10.15-16.41,31-47.03,30.04-67.1c-1.51-31.62-31.13,10.17-37.88,19.21
		C103.07,281.19,88.75,303.79,72.5,325z"/>
	<path class="st7" d="M385.29,141.56c0.49-0.03,0.97-0.07,1.47-0.08c23.95-0.69,44.71,19.39,51.95,42.23
		c7.24,22.84,3.72,47.64-1.67,70.98c-5.59,24.22-13.47,48.64-29.23,67.86c-6.46,7.88-14.41,14.71-23.33,19.76
		c25.3-10.64,51-34.8,68.99-67.87c30.91-56.84,27.35-118.48-7.96-137.68C428.22,127.36,406.54,129.88,385.29,141.56z"/>
</g>
<path class="st8" d="M436.27,300.58c0.23-0.29,0.46-0.58,0.69-0.88c0.42-0.54,0.84-1.08,1.25-1.63c0.22-0.29,0.44-0.57,0.65-0.86
	c0.45-0.6,0.9-1.21,1.34-1.82c0.17-0.24,0.35-0.47,0.52-0.71c0.62-0.85,1.23-1.72,1.84-2.59c0.03-0.04,0.06-0.09,0.09-0.13
	c0.57-0.82,1.14-1.65,1.7-2.49c0.19-0.29,0.38-0.57,0.57-0.86c0.4-0.6,0.8-1.2,1.19-1.81c0.22-0.34,0.44-0.69,0.66-1.03
	c0.36-0.57,0.72-1.13,1.08-1.71c0.22-0.36,0.45-0.72,0.67-1.09c0.35-0.58,0.7-1.16,1.05-1.74c0.21-0.35,0.42-0.71,0.63-1.07
	c0.37-0.64,0.74-1.28,1.11-1.92c0.18-0.31,0.35-0.61,0.53-0.92c0.54-0.95,1.07-1.91,1.6-2.88c30.91-56.84,27.35-118.48-7.96-137.68
	c-0.55-0.3-1.1-0.58-1.65-0.85c-0.2-0.1-0.39-0.18-0.59-0.28c-0.16-0.07-0.31-0.15-0.47-0.22c-0.12-0.05-0.23-0.11-0.35-0.16
	c-0.09-0.04-0.18-0.08-0.27-0.12c-0.25-0.11-0.5-0.21-0.75-0.32c-0.31-0.13-0.63-0.27-0.94-0.4c-0.23-0.09-0.46-0.17-0.68-0.26
	c-0.16-0.06-0.31-0.12-0.47-0.18c-0.19-0.07-0.38-0.14-0.57-0.21c-0.3-0.1-0.6-0.2-0.9-0.3c-0.01,0-0.03-0.01-0.04-0.01l0-0.01
	l-30.6-16.28c0.02-0.42,0.04-0.85,0.04-1.27c0-17.45-16.52-31.6-36.89-31.6c-6.41,0-12.43,1.4-17.68,3.86l-43.11-22.93l0.11,0.14
	c-35.31-18.3-88.41,12.17-119.08,68.58c-1.6,2.95-3.11,5.9-4.52,8.87l0,0L38.7,362.31l-1.2,1.3l0.18,0.23l-0.18,0.27l0.75,0.46
	l21.58,27.34l85.86,52.61l125.55-137.36l62.32,35.46c14.76,8.03,32.73,7.36,50.91-0.28c0,0,0,0,0,0c0,0,0.01,0,0.01,0
	c2.36-0.99,4.73-2.11,7.09-3.33c0.02-0.01,0.04-0.02,0.06-0.03c0.74-0.38,1.48-0.78,2.22-1.19c0.09-0.05,0.17-0.1,0.26-0.14
	c0.69-0.38,1.37-0.77,2.06-1.17c0.1-0.06,0.19-0.11,0.29-0.17c0.71-0.42,1.42-0.85,2.13-1.28c0.05-0.03,0.1-0.06,0.15-0.09
	c2.33-1.44,4.65-2.99,6.95-4.64c0.06-0.04,0.12-0.09,0.18-0.13c0.68-0.49,1.36-0.99,2.03-1.5c0.13-0.1,0.26-0.2,0.4-0.3
	c0.62-0.47,1.23-0.94,1.84-1.42c0.14-0.11,0.29-0.23,0.43-0.34c0.62-0.49,1.24-0.99,1.86-1.5c0.12-0.1,0.24-0.19,0.35-0.29
	c0.15-0.12,0.29-0.24,0.44-0.36c2.08-1.73,4.13-3.54,6.16-5.43c0.12-0.12,0.25-0.23,0.37-0.35c0.58-0.54,1.16-1.09,1.73-1.65
	c0.19-0.18,0.37-0.36,0.56-0.54c0.52-0.51,1.04-1.02,1.55-1.54c0.2-0.2,0.4-0.4,0.6-0.6c0.51-0.52,1.03-1.05,1.54-1.59
	c0.18-0.19,0.37-0.38,0.55-0.57c0.57-0.6,1.14-1.21,1.71-1.83c0.11-0.12,0.23-0.24,0.34-0.37c0.67-0.74,1.35-1.48,2.01-2.24
	c0.69-0.78,1.37-1.57,2.04-2.37c0.17-0.21,0.35-0.42,0.52-0.62c0.35-0.41,0.7-0.82,1.04-1.24c0.13-0.16,0.26-0.32,0.39-0.48
	c0.22-0.27,0.44-0.54,0.66-0.81C435.42,301.66,435.85,301.12,436.27,300.58z"/>
<polygon class="st9" points="174.47,200.83 245.76,244.3 274.28,212.62 195.88,168.7 "/>
</svg>
