<?xml version="1.0" encoding="iso-8859-1"?>
<!-- Generator: Adobe Illustrator 19.0.0, SVG Export Plug-In . SVG Version: 6.00 Build 0)  -->
<svg version="1.1" id="Capa_1" xmlns="http://www.w3.org/2000/svg" xmlns:xlink="http://www.w3.org/1999/xlink" x="0px" y="0px"
	 viewBox="0 0 512.001 512.001" style="enable-background:new 0 0 512.001 512.001;" xml:space="preserve">
<path style="fill:#0387D8;" d="M7.61,276.795c5.657,0.608,11.953,0.963,19.121,0.963c59.706,0,59.706-24.373,119.411-24.373
	s59.706,24.373,119.411,24.373c59.716,0,59.716-24.373,119.422-24.373s59.706,24.373,119.422,24.373v71.355
	c-59.706,0-59.706,24.363-119.411,24.363s-59.706-24.363-119.411-24.363s-59.706,24.363-119.411,24.363
	c-59.716,0-59.716-24.363-119.422-24.363c-7.168,0-13.474,0.355-19.131,0.963"/>
<path style="fill:#F9DCA2;" d="M320.367,329.533l-0.324-39.936c-0.162-18.837,15.066-34.187,33.913-34.187h95.78
	c7.3,0,13.92-2.971,18.706-7.746c4.887-4.907,7.867-11.7,7.736-19.192c-0.253-14.518-12.521-25.975-27.05-25.975H319.738h-34.055
	l-59.554,0.001h-37.208h-66.742l-12.166-48.057c-0.223-0.973-0.497-1.916-0.821-2.839L62.646,138.99
	c-6.387,5.495-10.139,13.575-10.139,22.082c0,2.2,0.253,4.42,0.771,6.641l17.671,71.568c2.21,9.449,10.635,16.13,20.338,16.13h63.7
	c18.726,0,33.913,15.177,33.913,33.913v48.533"/>
<g>
	<path style="fill:#E5C691;" d="M209.961,322.651v-48.533c0-18.736-15.187-33.913-33.913-33.913h-63.7
		c-9.703,0-18.128-6.681-20.338-16.13l-17.671-71.568c-0.517-2.219-0.771-4.441-0.771-6.641c0-1.294,0.097-2.576,0.267-3.844
		l-11.189-3.031c-6.387,5.495-10.139,13.575-10.139,22.082c0,2.2,0.253,4.42,0.771,6.641l17.671,71.568
		c2.21,9.449,10.635,16.13,20.338,16.13h63.7c18.726,0,33.913,15.177,33.913,33.913v48.533l131.466-8.325l-0.113-13.866
		L209.961,322.651z"/>
	<path style="fill:#E5C691;" d="M470.796,240.203h-95.78c-12.217,0-22.907,6.453-28.877,16.121c2.509-0.591,5.124-0.914,7.816-0.914
		h95.78c7.3,0,13.92-2.971,18.706-7.746c2.19-2.199,3.994-4.779,5.31-7.63C472.779,240.142,471.795,240.203,470.796,240.203z"/>
</g>
<path style="fill:#E22342;" d="M320.367,329.534l-110.408,6.985l-21.058,1.338v-48.543c8.912-8.912,14.853-18.371,18.706-27.627
	c4.055-9.703,5.83-19.202,6.367-27.638c11.446,9.297,26.036,14.863,41.933,14.863c14.66,0,28.215-4.745,39.216-12.775
	c1.389,16.13,7.421,35.698,24.91,53.187l0.01,0.01v0.264L320.367,329.534z"/>
<path style="fill:#C9183A;" d="M209.958,343.951l-21.058-6.093v-48.543c8.912-8.912,14.853-18.371,18.706-27.627
	c1.521,3.853,2.352,8.04,2.352,12.43V343.951z"/>
<path style="fill:#54BBEF;" d="M504.397,423.931c-59.706,0-59.706,24.363-119.411,24.363s-59.706-24.363-119.411-24.363
	s-59.706,24.363-119.411,24.363c-59.716,0-59.716-24.363-119.422-24.363c-7.168,0-13.474,0.355-19.131,0.963V319.782
	c5.657-0.608,11.963-0.963,19.131-0.963c59.706,0,59.706,24.363,119.422,24.363c59.706,0,59.706-24.363,119.411-24.363
	s59.706,24.363,119.411,24.363s59.706-24.363,119.411-24.363"/>
<path style="fill:#0387D8;" d="M7.61,407.653c5.657,0.608,11.953,0.963,19.121,0.963c59.706,0,59.706-24.373,119.411-24.373
	s59.706,24.373,119.411,24.373c59.716,0,59.716-24.373,119.422-24.373s59.706,24.373,119.422,24.373v41.061
	c-59.706,0-59.706,24.363-119.411,24.363s-59.706-24.363-119.411-24.363s-59.706,24.363-119.411,24.363
	c-59.716,0-59.716-24.363-119.422-24.363c-7.168,0-13.474,0.355-19.131,0.963"/>
<circle style="fill:#EAEAE4;" cx="99.562" cy="94.939" r="57.478"/>
<path style="fill:#CECECC;" d="M77.063,94.933c0-25.645,16.8-47.36,39.99-54.76c-5.515-1.76-11.389-2.718-17.488-2.718
	c-31.745,0-57.478,25.734-57.478,57.478s25.734,57.478,57.478,57.478c6.099,0,11.973-0.958,17.488-2.718
	C93.861,142.294,77.063,120.579,77.063,94.933z"/>
<circle style="fill:#F9DCA2;" cx="255.908" cy="142.944" r="66.569"/>
<path style="fill:#E5C691;" d="M224.368,142.943c0-30.701,20.789-56.532,49.053-64.224c-5.583-1.52-11.451-2.345-17.516-2.345
	c-36.765,0-66.569,29.804-66.569,66.569s29.804,66.569,66.569,66.569c6.065,0,11.933-0.826,17.516-2.345
	C245.157,199.476,224.368,173.644,224.368,142.943z"/>
<g>
	<path style="fill:#E22342;" d="M322.476,142.944c0,6.002-0.791,11.822-2.291,17.357c-3.883-29.827-31.166-52.923-64.278-52.923
		c-8.354,0-16.333,1.47-23.663,4.157c-21.727,7.928-37.715,26.462-40.615,48.756c-1.5-5.536-2.291-11.345-2.291-17.347
		c0-36.762,29.807-66.569,66.569-66.569c6.043,0,11.903,0.811,17.469,2.322c0.02,0.01,0.03,0.02,0.051,0.02
		C301.692,86.402,322.476,112.245,322.476,142.944z"/>
</g>
<path style="fill:#C9183A;" d="M273.425,78.717c-17.803,4.846-32.646,16.891-41.183,32.818
	c-21.727,7.928-37.715,26.462-40.615,48.756c-1.5-5.536-2.291-11.345-2.291-17.347c0-36.762,29.807-66.569,66.569-66.569
	c6.043,0,11.903,0.811,17.469,2.322C273.395,78.707,273.405,78.717,273.425,78.717z"/>
<path d="M504.394,442.581c-31.344,0-47.223,6.48-62.578,12.745c-14.642,5.975-28.472,11.618-56.833,11.618
	s-42.191-5.643-56.833-11.618c-15.356-6.266-31.234-12.745-62.579-12.745c-31.344,0-47.223,6.48-62.578,12.745
	c-14.642,5.975-28.472,11.618-56.833,11.618c-28.368,0-42.2-5.643-56.844-11.619c-15.356-6.266-31.235-12.744-62.578-12.744
	c-7.123,0-13.647,0.33-19.944,1.007c-4.176,0.449-7.196,4.198-6.747,8.373c0.449,4.176,4.201,7.201,8.373,6.747
	c5.752-0.618,11.743-0.92,18.318-0.92c28.36,0,42.19,5.643,56.832,11.617c15.358,6.266,31.239,12.745,62.589,12.745
	c31.345,0,47.223-6.48,62.579-12.745c14.642-5.975,28.472-11.618,56.832-11.618s42.191,5.643,56.833,11.618
	c15.356,6.266,31.234,12.745,62.579,12.745s47.223-6.48,62.579-12.745c14.642-5.975,28.472-11.618,56.832-11.618
	c4.199,0,7.604-3.405,7.604-7.604S508.593,442.581,504.394,442.581z"/>
<path d="M504.394,401.519c-28.367,0-42.199-5.646-56.843-11.624c-15.356-6.268-31.235-12.749-62.579-12.749
	c-31.343,0-47.222,6.482-62.578,12.749c-14.644,5.978-28.476,11.624-56.844,11.624c-28.36,0-42.189-5.645-56.831-11.623
	c-15.356-6.269-31.235-12.75-62.58-12.75s-47.224,6.483-62.58,12.75c-14.642,5.978-28.472,11.623-56.831,11.623
	c-6.568,0-12.557-0.3-18.309-0.92c-4.177-0.451-7.924,2.572-8.373,6.747c-0.449,4.175,2.572,7.924,6.747,8.373
	c6.297,0.677,12.818,1.007,19.934,1.007c31.345,0,47.223-6.483,62.579-12.75c14.642-5.978,28.472-11.623,56.832-11.623
	s42.19,5.645,56.832,11.623c15.356,6.269,31.235,12.75,62.579,12.75c31.351,0,47.232-6.483,62.59-12.751
	c14.642-5.977,28.472-11.622,56.831-11.622s42.189,5.645,56.831,11.622c15.358,6.27,31.239,12.751,62.59,12.751
	c4.199,0,7.604-3.405,7.604-7.604S508.593,401.519,504.394,401.519z"/>
<path d="M504.069,311.722c-31.129,0.045-46.951,6.501-62.254,12.745c-14.642,5.975-28.472,11.618-56.833,11.618
	c-28.505,0-42.331-5.701-57.058-11.709l0,0l-0.284-34.844c-0.063-7.366,2.881-14.284,8.269-19.367
	c4.993-4.711,11.714-7.151,18.579-7.151h53.427c14.202,2.074,23.772,5.974,33.887,10.102c15.306,6.247,31.131,12.706,62.27,12.75
	c4.17,0.006,7.811-3.221,7.925-7.389c0.119-4.298-3.331-7.819-7.601-7.819c-22.89,0-36.315-3.676-48.341-8.237
	c6.68-1.25,12.836-4.471,17.769-9.393c6.581-6.609,10.115-15.377,9.95-24.69c-0.322-18.442-15.867-33.446-34.652-33.446h-51.684
	c-4.199,0-7.604,3.405-7.604,7.604l0,0c0,4.199,3.405,7.604,7.604,7.604h51.684c10.545,0,19.268,8.301,19.447,18.505
	c0.091,5.164-1.87,10.026-5.504,13.676c-3.57,3.562-8.305,5.523-13.334,5.523h-95.024c-10.949,0-21.633,3.987-29.525,11.576
	c-3.996,3.841-7.104,8.337-9.259,13.239c-17.358-25.03-14.115-51.565-11.677-62.521h57.707c4.199,0,7.604-3.405,7.604-7.604l0,0
	c0-4.199-3.405-7.604-7.604-7.604h-53.176c14.277-14.529,22.642-34.885,21.12-57.136c-2.543-37.139-32.799-66.907-69.973-68.88
	c-42.718-2.268-78.196,31.834-78.196,74.067c0,20.214,8.138,38.558,21.298,51.951h-74.933l-9.546-37.71
	c26.235-8.018,45.485-32.194,46.082-60.879c0.722-34.734-26.478-64.304-61.16-66.339c-18.33-1.076-35.824,5.455-48.787,17.824
	c-3.296,3.146-3.012,8.501,0.532,11.365l0,0c2.996,2.42,7.289,2.177,10.084-0.471c9.923-9.401,23.275-14.358,37.261-13.536
	c26.137,1.537,46.825,23.507,46.874,49.69c0.053,27.521-22.302,49.932-49.802,49.971c-26.529,0.038-48.756-21.163-49.899-47.668
	c-0.152-3.526,0.061-7.028,0.632-10.459c0.625-3.755-1.618-7.392-5.257-8.511l-0.008-0.003c-4.349-1.338-8.96,1.406-9.716,5.893
	c-0.602,3.578-0.906,7.214-0.906,10.875c0,17.149,6.678,32.761,17.558,44.399c-4.594,6.247-7.137,13.84-7.137,21.74
	c0,2.791,0.326,5.606,0.993,8.464l17.649,71.478c2.099,8.971,8.217,16.061,16.197,19.578c-13.341,5.365-27.123,10.069-53.008,10.069
	c-6.444,0-12.329-0.289-17.982-0.884c-4.134-0.436-8.082,2.335-8.666,6.451c-0.607,4.279,2.451,8.177,6.715,8.635
	c6.297,0.677,12.818,1.007,19.934,1.007c31.345,0,47.226-6.482,62.583-12.75c10.113-4.128,19.681-8.027,33.881-10.102h31.788
	c14.531,0,26.309,11.779,26.309,26.309v42.796c-9.152,2.379-20.102,3.965-35.133,3.965c-28.368,0-42.2-5.643-56.844-11.619
	c-15.356-6.266-31.235-12.744-62.578-12.744c-7.021,0-13.464,0.32-19.686,0.979c-3.857,0.409-6.992,3.563-7.049,7.441
	c-0.07,4.662,3.94,8.195,8.416,7.707c5.757-0.618,11.75-0.92,18.319-0.92c28.36,0,42.19,5.643,56.832,11.617
	c15.358,6.266,31.239,12.745,62.589,12.745c31.345,0,47.223-6.48,62.579-12.745c14.642-5.975,28.472-11.618,56.832-11.618
	c28.36,0,42.191,5.643,56.833,11.618c15.356,6.266,31.234,12.745,62.579,12.745s47.223-6.48,62.579-12.745
	c14.642-5.975,28.472-11.618,56.832-11.618c4.271,0,7.719-3.521,7.601-7.819C511.88,314.943,508.239,311.717,504.069,311.722z
	 M287.182,232.33c-9.366,5.882-20.094,8.979-31.276,8.979c-12.413,0-24.119-3.751-34.096-10.861
	c0.167-8.078-0.663-15.088-1.624-20.345h4.274c9.554,4.49,20.207,7.015,31.443,7.015c11.237,0,21.891-2.525,31.445-7.016h1.404
	C287.715,215.762,286.832,223.457,287.182,232.33z M199.397,159.776c4.139-25.639,28.136-44.794,56.505-44.794
	c28.362,0,52.356,19.155,56.502,44.798c-7.264,24.333-29.84,42.129-56.503,42.129C229.237,201.909,206.661,184.113,199.397,159.776z
	 M255.902,83.978c26.173,0,48.405,17.146,56.086,40.791c-13.348-15.323-33.644-24.994-56.086-24.994
	c-22.442,0-42.735,9.667-56.084,24.983C207.503,101.118,229.732,83.978,255.902,83.978z M154.983,247.807h-63.7
	c-6.203,0-11.521-4.219-12.956-10.349l-17.648-71.47c-0.38-1.63-0.572-3.284-0.572-4.915c0-4.269,1.267-8.387,3.578-11.873
	c10.294,6.828,22.625,10.818,35.876,10.818c1.338,0,2.663-0.054,3.981-0.134l11.261,44.482c0.854,3.374,3.89,5.737,7.372,5.737
	h82.514c2.438,10.96,5.684,37.509-11.697,62.548C186.558,258.038,171.947,247.807,154.983,247.807z M202.993,324.467
	c-2.165,0.883-4.313,1.759-6.492,2.611v-34.682c13.93-14.815,20.645-30.754,23.504-45.157c10.924,6.032,23.304,9.276,35.9,9.276
	c11.72,0,23.045-2.706,33.315-7.889c3.01,14.043,9.737,29.445,23.237,43.794l0.213,26.157c-11.694-3.874-25.836-6.857-47.099-6.857
	C234.227,311.722,218.348,318.202,202.993,324.467z"/>
<path d="M274.562,136.451c-4.199,0-7.604,3.405-7.604,7.604v8.507c0,4.199,3.405,7.604,7.604,7.604s7.604-3.405,7.604-7.604v-8.507
	C282.166,139.855,278.761,136.451,274.562,136.451z"/>
<path d="M237.242,136.451c-4.199,0-7.604,3.405-7.604,7.604v8.507c0,4.199,3.405,7.604,7.604,7.604s7.604-3.405,7.604-7.604v-8.507
	C244.846,139.855,241.441,136.451,237.242,136.451z"/>
<g>
</g>
<g>
</g>
<g>
</g>
<g>
</g>
<g>
</g>
<g>
</g>
<g>
</g>
<g>
</g>
<g>
</g>
<g>
</g>
<g>
</g>
<g>
</g>
<g>
</g>
<g>
</g>
<g>
</g>
</svg>
