<?xml version="1.0" encoding="utf-8"?>
<!-- Generator: Adobe Illustrator 19.0.0, SVG Export Plug-In . SVG Version: 6.00 Build 0)  -->
<svg version="1.1" id="Capa_1" xmlns="http://www.w3.org/2000/svg" xmlns:xlink="http://www.w3.org/1999/xlink" x="0px" y="0px"
	 viewBox="362 -100 250 250" style="enable-background:new 362 -100 250 250;" xml:space="preserve">
<style type="text/css">
	.st0{fill:#FFA627;}
	.st1{opacity:0.25;enable-background:new    ;}
	.st2{fill:#36393B;}
	.st3{fill:#FFFFFF;}
	.st4{opacity:0.15;enable-background:new    ;}
	.st5{opacity:7.000000e-002;enable-background:new    ;}
	.st6{opacity:0.1;enable-background:new    ;}
</style>
<g>
	<g>
		<polygon class="st0" points="527.7,69 461.9,31.5 486.2,-10.4 534.3,21.9 		"/>
	</g>
	<g class="st1">
		<polygon class="st2" points="527.7,69 461.9,31.5 486.2,-10.4 534.3,21.9 		"/>
	</g>
	<g>
		<path class="st0" d="M590.6,33.2C574.3,63,546.2,79,527.7,69c-18.5-10.1-20.4-42.4-4.2-72.2c16.2-29.8,44.4-45.8,62.9-35.8
			C604.9-29,606.8,3.4,590.6,33.2z"/>
	</g>
	<g>
		
			<ellipse transform="matrix(-0.8785 -0.4777 0.4777 -0.8785 923.956 190.4138)" class="st0" cx="486.2" cy="-22.3" rx="38.2" ry="61.5"/>
	</g>
	<g>
		<polygon class="st0" points="450.3,-35.9 372.3,80.2 417.4,107.6 530.1,-13.8 		"/>
	</g>
	<g>
		<polygon class="st0" points="417.4,107.6 429.1,122.4 512.7,30.9 530.1,-13.8 		"/>
	</g>
	<g>
		<polygon class="st0" points="372.3,80 384,94.8 466.6,4.5 485,-41.4 		"/>
	</g>
	<g>
		<polygon class="st3" points="384,94.8 429.1,122.4 417.4,107.6 372.3,80 		"/>
	</g>
	<g>
		<polygon class="st0" points="382.5,96.9 428.7,124.4 414.5,107.1 370.7,80 		"/>
		<path d="M428.7,126.2c-0.3,0-0.6-0.1-0.9-0.3l-46.2-27.5c-0.2-0.1-0.4-0.3-0.6-0.5L369.2,81c-0.5-0.7-0.4-1.7,0.2-2.3
			c0.6-0.6,1.6-0.8,2.3-0.3l43.8,27.2c0.2,0.1,0.3,0.2,0.5,0.4l14.2,17.3c0.6,0.7,0.6,1.7,0,2.4C429.7,126,429.2,126.2,428.7,126.2z
			 M383.8,95.5l36.8,21.9l-7.3-8.9l-36-22.3L383.8,95.5z"/>
	</g>
	<g>
		<path class="st0" d="M566.3-50c0,9.2-8.7,16.6-19.4,16.6c-10.7,0-19.4-7.4-19.4-16.6s8.7-16.6,19.4-16.6
			C557.6-66.6,566.3-59.1,566.3-50z"/>
	</g>
	<g class="st4">
		<path class="st2" d="M566.3-50c0,9.2-8.7,16.6-19.4,16.6c-10.7,0-19.4-7.4-19.4-16.6s8.7-16.6,19.4-16.6
			C557.6-66.6,566.3-59.1,566.3-50z"/>
	</g>
	<g>
		<polygon class="st0" points="529.7,-58 586.2,-23.4 582.3,-40.8 515.1,-76.6 		"/>
	</g>
	<g>
		<path class="st0" d="M493.7-73.6l31.3,6.3l41.4,25.9l-2.6,24.8L523,4c0,0-36.7-18.7-36.8-19.5C486.1-16.4,493.7-73.6,493.7-73.6z"
			/>
	</g>
	<g>
		<path d="M429.1,125.8c0,0-0.1,0-0.1,0c-1,0-1.9-0.5-2.6-1.3l-11.7-14.8c-1-1.3-1-3.2,0.2-4.4L527.4-15.9
			c8.4-11.6,18.8-20.6,29.5-25.5c11.3-5.2,22.3-5.4,31.1-0.6l0,0c10,5.5,16,16.6,16.9,31.5c0.8,14.3-3.2,30.4-11.4,45.3
			c-8.1,15-19.5,27.1-31.9,34.2c-12.9,7.4-25.6,8.4-35.6,3c-10.1-5.5-16.2-17.2-16.9-32l-77.5,84.8C431,125.4,430,125.8,429.1,125.8
			z M421.9,107.8l7.4,9.4l80.9-88.5c0.1-0.1,0.1-0.2,0.2-0.2c1-0.9,2.6-1.2,3.8-0.5c1.3,0.6,2,2,1.9,3.4
			c-1.5,16.5,3.5,29.5,13.2,34.7c7.9,4.3,18.2,3.3,29-2.9c11.3-6.4,21.7-17.6,29.3-31.5c7.5-13.9,11.3-28.7,10.5-41.7
			c-0.7-12.4-5.5-21.6-13.3-25.9c0,0,0,0,0,0c-14.3-7.8-36.2,2.4-51.9,24.2c-0.1,0.1-0.2,0.2-0.3,0.3L421.9,107.8z"/>
	</g>
	<g class="st5">
		<path class="st3" d="M487.7-69.2c5.3-2.7,11.1-4.9,17-4.7c4.3,0.1,8.4,1.5,12.3,3.2c14.1,6.2,25.8,17.3,40.4,22
			c1.2,0.4,2.6,0.9,3.1,2.1c0.5,1.2-0.2,2.5-0.9,3.5c-3.2,4.5-8,7.5-12.7,10.4c-4.3,2.7-8.7,5.4-13.5,7c-11.5,3.9-24.1,1.2-36.1-1
			c-10.5-1.9-21-3.4-31.6-4.4c-2.2-0.2-4.5-0.4-6.4-1.5s-3.5-3.2-3.1-5.4c0.2-1.2,0.9-2.2,1.6-3.2C466.2-52.6,474.8-62.5,487.7-69.2
			z"/>
	</g>
	<g class="st5">
		<path class="st3" d="M539.4-56.8c5,2.7,11.1,6.1,11.2,11.8c0.1,4-3.2,7.4-7,8.6c-3.8,1.1-7.9,0.3-11.6-1.2
			c-3.7-1.5-7-3.7-10.6-5.4c-5.1-2.5-10.5-4.1-15.5-6.8s-9.6-6.7-11.1-12.2c-3.1-11,6.1-16,14.9-12.5
			C520.5-70.1,529.4-62.3,539.4-56.8z"/>
	</g>
	<g class="st5">
		<path class="st3" d="M390.7,59.7c-3,4-6.4,8.3-6.5,13.3c-0.1,5,5,10.3,9.6,8.2c1.1-0.5,2-1.4,2.9-2.3c8.6-8.5,16.2-18,22.5-28.3
			C424.6,42,435.5,26,435,15.4c-0.8-16.6-16.3,5.3-19.9,10.1C406.7,36.7,399.2,48.6,390.7,59.7z"/>
	</g>
	<g class="st6">
		<path class="st2" d="M554.8-36.5c0.3,0,0.5,0,0.8,0c12.6-0.4,23.5,10.2,27.3,22.2c3.8,12,2,25-0.9,37.2
			c-2.9,12.7-7.1,25.5-15.3,35.6c-3.4,4.1-7.6,7.7-12.2,10.4c13.3-5.6,26.8-18.3,36.2-35.6C606.8,3.4,604.9-29,586.4-39
			C577.3-44,565.9-42.6,554.8-36.5z"/>
	</g>
</g>
<g>
	<path d="M429.1,125.6c-0.6,0-1.1-0.2-1.6-0.5l-45-27.6c-0.3-0.2-0.6-0.4-0.8-0.7l-11-13.9c-0.7-0.5-1.2-1.1-1.3-2
		c-0.1-0.3-0.1-0.5-0.1-0.8c0-0.8,0.2-1.6,0.8-2.3l0.5-0.5l77-114.8c0.7-1.5,1.5-3,2.3-4.6c8.1-14.8,19.2-26.9,31.5-33.9
		c12.5-7.2,24.8-8.5,34.6-3.6c0.2,0.1,0.4,0.1,0.5,0.2L537.8-68c2.9-1.1,6-1.7,9.1-1.7c11.9,0,21.7,8.2,22.5,18.5l14.2,7.5l0.2,0.1
		c0,0,0.1,0,0.1,0l0.6,0.2c0,0,0.1,0,0.1,0l0.3,0.1c0,0,0,0,0.1,0l0.5,0.2c0,0,0,0,0.1,0l0.5,0.2c0.1,0,0.1,0.1,0.2,0.1l0,0
		c0.1,0,0.2,0.1,0.3,0.1c0.1,0,0.1,0.1,0.2,0.1l0.1,0c0.1,0,0.2,0.1,0.2,0.1c0.3,0.2,0.6,0.3,1,0.5c9.9,5.4,15.9,16.5,16.8,31.3
		c0.8,14.2-3.2,30.3-11.3,45.2c-0.3,0.5-0.6,1-0.9,1.6l-0.9,1.5c-0.1,0.2-0.2,0.4-0.4,0.6l-0.6,0.9c-0.1,0.1-0.2,0.3-0.3,0.4
		l-0.1,0.2c-0.1,0.2-0.3,0.5-0.4,0.7l-0.5,0.8c-0.2,0.3-0.4,0.7-0.6,1l-0.3,0.4c-0.3,0.5-0.6,0.9-0.9,1.4c0,0,0,0,0,0
		c0,0,0,0-0.1,0.1c-0.3,0.5-0.7,0.9-1,1.4c0,0-0.1,0.1-0.2,0.2l-0.1,0.1c-0.3,0.4-0.5,0.7-0.8,1c-0.1,0.1-0.2,0.2-0.3,0.3l-0.1,0.1
		c-0.2,0.3-0.4,0.6-0.7,0.9c-0.1,0.2-0.2,0.3-0.4,0.5l-0.2,0.2c-0.1,0.2-0.3,0.4-0.4,0.6c0,0,0,0.1-0.1,0.1l-0.6,0.7
		c-0.2,0.2-0.4,0.5-0.6,0.7l0,0.1c-0.1,0.1-0.1,0.1-0.2,0.2c0,0,0,0,0,0c-0.4,0.4-0.7,0.9-1.1,1.3c-0.3,0.3-0.6,0.6-0.9,1l-0.2,0.2
		c-0.1,0.1-0.1,0.1-0.2,0.2c0,0,0,0,0,0c-0.3,0.3-0.6,0.7-0.9,1l-0.3,0.3c-0.3,0.3-0.6,0.6-0.8,0.9l-0.3,0.3
		c-0.2,0.2-0.5,0.5-0.8,0.8l-0.1,0.1c0,0,0,0,0,0l-0.3,0.3c-0.3,0.3-0.6,0.6-0.9,0.9c0,0-0.1,0.1-0.1,0.1c0,0-0.1,0.1-0.1,0.1
		c-1.1,1-2.2,2-3.4,3c0,0,0,0,0,0l-0.2,0.1c-0.1,0-0.1,0.1-0.2,0.1c0,0,0,0,0,0c-0.3,0.3-0.7,0.6-1,0.8l-0.2,0.2
		c-0.3,0.3-0.7,0.5-1,0.8c0,0,0,0-0.1,0.1l-0.1,0.1c-0.4,0.3-0.8,0.6-1.2,0.9c0,0,0,0,0,0c0,0-0.1,0-0.1,0.1
		c-1.3,0.9-2.5,1.8-3.8,2.5c0,0-0.1,0-0.1,0c-0.4,0.3-0.8,0.5-1.2,0.7l-0.1,0.1c0,0,0,0-0.1,0c-0.4,0.2-0.8,0.4-1.1,0.6
		c0,0-0.1,0-0.1,0.1l0,0c-0.4,0.2-0.8,0.4-1.2,0.7c0,0,0,0-0.1,0c-1.3,0.7-2.6,1.3-3.9,1.8c0,0-0.1,0-0.1,0c-10.8,4.5-21,4.5-29.3,0
		c0,0,0,0-0.1,0l-30.5-17.4l-64.2,70.2C430.8,125.2,430,125.6,429.1,125.6z M386.2,92.4l42.3,25.9l64.1-70.1c1-1.1,2.6-1.3,3.9-0.6
		l32.7,18.6c6.6,3.6,14.9,3.5,24-0.3c0,0,0.1,0,0.1,0c1.1-0.5,2.2-1,3.4-1.6c0,0,0.1,0,0.1,0c0.3-0.2,0.7-0.4,1-0.6
		c0.1,0,0.1-0.1,0.2-0.1c0.3-0.2,0.6-0.4,1-0.5l0.1,0c0,0,0,0,0.1,0c0.4-0.2,0.7-0.4,1.1-0.7c0,0,0,0,0,0c1.2-0.7,2.3-1.5,3.5-2.3
		c0,0,0,0,0,0c0,0,0.1,0,0.1-0.1c0.3-0.2,0.7-0.5,1-0.7c0.1-0.1,0.2-0.1,0.2-0.2c0.3-0.2,0.6-0.5,0.9-0.7l0.2-0.2
		c0.3-0.2,0.6-0.5,0.9-0.7l0.1-0.1l0,0c0,0,0.1-0.1,0.1-0.1l0.2-0.2c1-0.8,2-1.8,3.1-2.7c0,0,0.1-0.1,0.1-0.1c0,0,0.1-0.1,0.1-0.1
		c0.3-0.3,0.6-0.5,0.8-0.8l0.4-0.4c0.2-0.2,0.5-0.5,0.7-0.7l0.3-0.3c0.2-0.2,0.5-0.5,0.7-0.8l0.3-0.3c0.3-0.3,0.6-0.6,0.9-0.9
		l0.1-0.1c0,0,0-0.1,0.1-0.1l0.2-0.2c0.3-0.3,0.5-0.6,0.8-0.9c0.4-0.4,0.7-0.8,1-1.2c0.1-0.1,0.2-0.2,0.3-0.3l0-0.1
		c0.2-0.2,0.3-0.4,0.5-0.6l0.5-0.6c0.2-0.2,0.3-0.4,0.5-0.6L579,45c0,0,0,0,0,0c0.1-0.1,0.2-0.3,0.3-0.4c0.2-0.3,0.4-0.6,0.6-0.8
		l0.1-0.2c0.1-0.1,0.1-0.2,0.2-0.2c0.3-0.3,0.5-0.6,0.7-1c0-0.1,0.1-0.1,0.2-0.2l0.1-0.1c0.3-0.5,0.6-0.9,1-1.3c0,0,0,0,0,0
		c0,0,0,0,0-0.1c0.3-0.4,0.6-0.8,0.8-1.2l0.3-0.4c0.2-0.3,0.4-0.6,0.6-0.9l0.5-0.8c0.1-0.2,0.3-0.4,0.4-0.6l0.1-0.2
		c0.1-0.1,0.1-0.2,0.2-0.3l0.6-0.9c0.1-0.2,0.2-0.3,0.3-0.5l0.9-1.5c0.3-0.5,0.5-0.9,0.8-1.4c7.6-13.9,11.3-28.8,10.6-41.8
		c-0.7-12.5-5.5-21.8-13.5-26.1c-0.3-0.1-0.5-0.3-0.7-0.4l-0.1,0c-0.1,0-0.1-0.1-0.2-0.1c-0.1,0-0.1,0-0.2-0.1
		c-0.1,0-0.1-0.1-0.2-0.1c0,0,0,0,0,0l-1-0.4c-0.1,0-0.2-0.1-0.3-0.1l-0.8-0.3c-0.3-0.1-0.5-0.2-0.8-0.3l-15.9-8.5
		c-1.1-0.6-1.7-1.7-1.7-2.9c0-0.2,0-0.4,0-0.5c0-7.4-7.3-13.4-16.2-13.4c-2.8,0-5.5,0.6-7.9,1.7c-0.9,0.4-1.9,0.4-2.8-0.1
		l-22.1-11.8c-0.1,0-0.3-0.1-0.4-0.2c-16.9-8.8-43.1,6.8-58.3,34.7c-0.8,1.6-1.6,3-2.3,4.5c-0.1,0.1-0.1,0.3-0.2,0.4L376.3,80
		L386.2,92.4z"/>
</g>
<g>
	<path d="M481.6,20c-0.5,0-0.9-0.1-1.4-0.4L442.8-3.2c-0.6-0.4-1-1-1.2-1.7s0-1.4,0.4-2l11.2-16.9c0.8-1.1,2.3-1.5,3.5-0.8l41.1,23
		c0.7,0.4,1.2,1.1,1.3,1.9c0.1,0.8-0.1,1.6-0.6,2.2l-15,16.6C483,19.7,482.3,20,481.6,20z M447.9-6.2L481.1,14l11.3-12.6l-36.1-20.3
		L447.9-6.2z"/>
</g>
</svg>
