<svg height="512pt" viewBox="-95 0 512 512" width="512pt" xmlns="http://www.w3.org/2000/svg"><path d="m321.410156 394.953125v70.765625c0 5.621094-3.226562 10.722656-8.277344 13.179688-42.78125 20.820312-95.460937 33.101562-152.429687 33.101562-56.964844 0-109.644531-12.28125-152.425781-33.101562-5.050782-2.457032-8.277344-7.558594-8.277344-13.179688v-70.765625c0-9.324219 5.511719-17.765625 14.046875-21.53125l71.574219-31.550781c8.375-3.683594 13.785156-11.992188 13.785156-21.144532v-77.132812h122.597656v77.132812c0 9.152344 5.410156 17.460938 13.785156 21.144532l71.574219 31.550781c8.535157 3.765625 14.046875 12.207031 14.046875 21.53125zm0 0" fill="#c98c4f"/><path d="m307.363281 373.421875-71.574219-31.550781c-8.375-3.683594-13.785156-11.992188-13.785156-21.144532v-77.132812h-122.597656v12.40625h97.871094v77.132812c0 9.152344 5.410156 17.460938 13.785156 21.144532l71.578125 31.550781c8.535156 3.765625 14.046875 12.207031 14.046875 21.53125v70.769531c0 3.605469-1.335938 6.992188-3.621094 9.613282 6.902344-2.746094 13.597656-5.695313 20.066406-8.84375 5.050782-2.457032 8.277344-7.558594 8.277344-13.179688v-70.765625c0-9.324219-5.511718-17.765625-14.046875-21.53125zm0 0" fill="#af6a3a"/><path d="m222.003906 319.855469v-76.261719h-122.597656v51.757812c18.734375 22.324219 42.734375 39.074219 60.585938 39.074219h27.179687c10.296875.003907 22.636719-5.574219 34.832031-14.570312zm0 0" fill="#af6a3a"/><path d="m34.367188 490.0625c37.382812 13.96875 80.46875 21.9375 126.335937 21.9375 45.871094 0 88.957031-7.96875 126.335937-21.9375-1.667968-23.859375-20.941406-45.714844-22.722656-64.082031-1.40625-14.484375 5.207032-43.738281 11.265625-66.570313l-24.691406-10.882812c-1.277344 38.289062-19.558594 86.035156-90.183594 86.035156s-88.910156-47.746094-90.183593-86.035156l-24.691407 10.882812c6.054688 22.832032 12.667969 52.085938 11.265625 66.570313-1.785156 18.367187-21.058594 40.222656-22.730468 64.082031zm0 0" fill="#3872b7"/><path d="m248.15625 370.628906 22.214844 9.792969c1.644531-7.199219 3.449218-14.375 5.207031-21.011719l-24.6875-10.882812c-.238281 7.164062-1.074219 14.652344-2.734375 22.101562zm0 0" fill="#254d87"/><path d="m199.640625 320.816406c-8.113281-15.976562-26.550781-18.136718-27.332031-18.222656-3.050782-.332031-5.988282 1.171875-7.519532 3.820312-.203124.355469-2.820312 4.984376-4.085937 11.613282-1.261719-6.628906-3.878906-11.257813-4.082031-11.613282-1.53125-2.648437-4.480469-4.152343-7.519532-3.820312-.78125.085938-19.21875 2.246094-27.332031 18.222656-9.34375 18.402344-4.417969 31.261719 4.605469 35.847656 2.289062 1.164063 4.855469 1.796876 7.558594 1.796876 7.957031 0 17.128906-5.496094 24.101562-19.226563 1.296875-2.554687 2.148438-5.113281 2.671875-7.613281.519531 2.5 1.371094 5.058594 2.671875 7.613281 6.972656 13.730469 16.140625 19.226563 24.097656 19.226563 2.707032 0 5.269532-.636719 7.558594-1.796876 9.023438-4.585937 13.949219-17.445312 4.605469-35.847656zm-55.382813 11.417969c-4.589843 9.035156-9.65625 11.28125-10.886718 10.652344-1.238282-.628907-2.410156-6.039063 2.175781-15.074219 2.253906-4.433594 6.335937-6.929688 9.703125-8.300781.878906 3.519531 1.265625 8.273437-.992188 12.722656zm43.78125 10.652344c-1.234374.628906-6.296874-1.617188-10.882812-10.652344-2.25-4.429687-1.863281-9.1875-.984375-12.714844 3.375 1.371094 7.441406 3.867188 9.691406 8.296875v-.003906c4.585938 9.035156 3.414063 14.445312 2.175781 15.074219zm0 0" fill="#b4cbdb"/><path d="m304.480469 154.765625c-2.039063-7.488281-19.125-24.449219-19.125-24.449219s0-15.257812 0-30.960937c0-45.269531-36.054688-99.355469-124.652344-99.355469-88.59375 0-124.648437 54.085938-124.648437 99.355469v30.960937s-17.085938 16.960938-19.125 24.449219c-4.644532 17.042969 1.21875 61.394531 13.421874 74.167969 8.675782 9.078125 43.820313 14.988281 43.820313 14.988281h173.066406s35.144531-5.910156 43.820313-14.988281c12.203125-12.777344 18.066406-57.125 13.421875-74.167969zm0 0" fill="#e6eff5"/><path d="m147.113281 320.578125c-19.164062 0-43.546875-14.574219-65.226562-38.984375l-.324219-.367188-18.949219-25.941406-.261719-.445312c-10.179687-17.359375-15.558593-34.402344-15.558593-49.292969 0-.230469.097656-18.007813.097656-55.050781 0-30.472656 12.605469-56.078125 36.449219-74.046875 20.550781-15.488281 48.023437-24.015625 77.363281-24.015625 29.34375 0 56.816406 8.527344 77.367187 24.015625 23.84375 17.972656 36.449219 43.574219 36.449219 74.046875 0 47.003906.097657 54.84375.097657 54.914062v.140625c0 22.777344-13.039063 51.113281-34.878907 75.796875-21.730469 24.566406-46.195312 39.230469-65.441406 39.230469zm0 0" fill="#e6eff5"/><path d="m304.480469 154.765625c-2.039063-7.488281-19.125-24.449219-19.125-24.449219s0-15.257812 0-30.960937c0-45.269531-36.054688-99.355469-124.652344-99.355469-4.652344 0-9.15625.15625-13.523437.449219 78.75 5.21875 111.125 56.015625 111.125 98.90625v30.960937s17.085937 16.960938 19.125 24.449219c4.640624 17.042969-1.222657 61.394531-13.425782 74.167969-8.671875 9.078125-43.816406 14.988281-43.816406 14.988281h27.050781s35.144531-5.910156 43.820313-14.988281c12.203125-12.777344 18.066406-57.125 13.421875-74.167969zm0 0" fill="#b4cbdb"/><path d="m135.640625 1.574219c-2.171875 50.800781-15.535156 73.625-38.542969 87.023437h127.214844c-23.007812-13.398437-36.371094-36.222656-38.542969-87.023437-7.839843-1.023438-16.183593-1.574219-25.066406-1.574219-8.878906 0-17.222656.550781-25.0625 1.574219zm0 0" fill="#3872b7"/><path d="m264.21875 150.496094c0-117.015625-207.027344-117.015625-207.027344 0 0 37.511718-.097656 55.054687-.097656 55.054687 0 13.890625 5.519531 29.375 14.144531 44.078125l18.351563 25.125c18.230468 20.527344 40.628906 35.523438 57.523437 35.523438h27.179688c33.917969 0 90.023437-60.433594 90.023437-104.726563 0 0-.097656-7.195312-.097656-55.054687zm0 0" fill="#c98c4f"/><path d="m264.21875 150.496094c0-24.8125-9.3125-44.359375-23.980469-58.648438.027344 39.695313.039063 113.703125.039063 113.703125 0 44.292969-56.105469 104.726563-90.019532 104.726563h24.039063c33.914063 0 90.019531-60.433594 90.019531-104.726563 0 0-.097656-7.195312-.097656-55.054687zm0 0" fill="#af6a3a"/><g fill="#233b5e"><path d="m115.515625 193.324219c-4.269531 0-7.726563-3.457031-7.726563-7.722657v-3.253906c0-4.269531 3.457032-7.726562 7.726563-7.726562 4.265625 0 7.722656 3.457031 7.722656 7.726562v3.253906c0 4.265626-3.457031 7.722657-7.722656 7.722657zm0 0"/><path d="m205.894531 193.324219c-4.265625 0-7.722656-3.457031-7.722656-7.722657v-3.253906c0-4.269531 3.457031-7.726562 7.722656-7.726562 4.269531 0 7.726563 3.457031 7.726563 7.726562v3.253906c0 4.265626-3.457032 7.722657-7.726563 7.722657zm0 0"/><path d="m222.460938 163.320312c-1.144532 0-2.304688-.253906-3.398438-.792968-9.386719-4.605469-18.511719-4.605469-27.898438 0-3.828124 1.882812-8.460937.300781-10.339843-3.53125-1.878907-3.828125-.300781-8.460938 3.53125-10.339844 13.773437-6.761719 27.742187-6.761719 41.515625 0 3.828125 1.878906 5.410156 6.511719 3.53125 10.339844-1.34375 2.734375-4.089844 4.324218-6.941406 4.324218zm0 0"/><path d="m133.648438 163.320312c-1.144532 0-2.304688-.253906-3.402344-.792968-9.382813-4.605469-18.511719-4.605469-27.894532 0-3.832031 1.878906-8.460937.300781-10.339843-3.53125-1.882813-3.828125-.300781-8.460938 3.527343-10.339844 13.777344-6.761719 27.742188-6.761719 41.519532 0 3.828125 1.878906 5.410156 6.511719 3.53125 10.339844-1.34375 2.734375-4.089844 4.324218-6.941406 4.324218zm0 0"/></g><path d="m160.703125 239.644531c-9.703125 0-19.117187-2.972656-27.230469-8.597656-3.507812-2.429687-4.378906-7.242187-1.949218-10.75 2.433593-3.507813 7.246093-4.382813 10.753906-1.949219 5.511718 3.824219 11.886718 5.84375 18.425781 5.84375 6.542969 0 12.914063-2.019531 18.429687-5.84375 3.511719-2.433594 8.320313-1.558594 10.753907 1.949219 2.429687 3.507813 1.558593 8.320313-1.949219 10.753906-8.113281 5.621094-17.53125 8.59375-27.234375 8.59375zm0 0" fill="#874d26"/></svg>