<?xml version="1.0" encoding="utf-8"?>
<!-- Generator: Adobe Illustrator 19.0.0, SVG Export Plug-In . SVG Version: 6.00 Build 0)  -->
<svg version="1.1" id="Capa_1" xmlns="http://www.w3.org/2000/svg" xmlns:xlink="http://www.w3.org/1999/xlink" x="0px" y="0px"
	 viewBox="362 -100 250 250" style="enable-background:new 362 -100 250 250;" xml:space="preserve">
<style type="text/css">
	.st0{fill:#E6EFF5;}
	.st1{fill:#B4CBDB;}
	.st2{fill:#FF3606;}
	.st3{fill:#C98C4F;}
	.st4{fill:#AF6A3A;}
	.st5{fill:#254D87;}
	.st6{fill:#3872B7;}
	.st7{fill:#FFE0B3;}
	.st8{fill:#F4CFB5;}
</style>
<g>
	<g>
		<path class="st0" d="M506.5-19.2c-0.9-3.3-8.3-10.7-8.3-10.7s0-6.7,0-13.5c0-19.8-15.7-43.4-54.4-43.4s-54.4,23.6-54.4,43.4v13.5
			c0,0-7.5,7.4-8.3,10.7c-2,7.4,0.5,26.8,5.9,32.4c3.8,4,19.1,6.5,19.1,6.5h75.5c0,0,15.3-2.6,19.1-6.5
			C506,7.6,508.5-11.7,506.5-19.2z"/>
		<path class="st1" d="M506.5-19.2c-0.9-3.3-8.3-10.7-8.3-10.7s0-6.7,0-13.5c0-19.8-15.7-43.4-54.4-43.4c-2,0-4,0.1-5.9,0.2
			c34.4,2.3,48.5,24.4,48.5,43.2v13.5c0,0,7.5,7.4,8.3,10.7c2,7.4-0.5,26.8-5.9,32.4c-3.8,4-19.1,6.5-19.1,6.5h11.8
			c0,0,15.3-2.6,19.1-6.5C506,7.6,508.5-11.7,506.5-19.2z"/>
		<path class="st2" d="M432.8-86c-0.9,22.2-6.8,32.1-16.8,38h55.5c-10-5.8-15.9-15.8-16.8-38c-3.4-0.4-7.1-0.7-10.9-0.7
			S436.2-86.5,432.8-86z"/>
		<path class="st3" d="M513.9,85.6v30.9c0,2.5-1.4,4.7-3.6,5.8c-18.7,9.1-41.7,14.4-66.5,14.4c-24.9,0-47.8-5.4-66.5-14.4
			c-2.2-1.1-3.6-3.3-3.6-5.8V85.6c0-4.1,2.4-7.8,6.1-9.4L411,62.5c3.7-1.6,6-5.2,6-9.2V19.6h53.5v33.7c0,4,2.4,7.6,6,9.2l31.2,13.8
			C511.5,77.9,513.9,81.6,513.9,85.6z"/>
		<path class="st4" d="M507.7,76.2l-31.2-13.8c-3.7-1.6-6-5.2-6-9.2V19.6H417V25h42.7v33.7c0,4,2.4,7.6,6,9.2L497,81.7
			c3.7,1.6,6.1,5.3,6.1,9.4v30.9c0,1.6-0.6,3.1-1.6,4.2c3-1.2,5.9-2.5,8.8-3.9c2.2-1.1,3.6-3.3,3.6-5.8V85.6
			C513.9,81.6,511.5,77.9,507.7,76.2z"/>
		<path class="st4" d="M470.5,52.9V19.6H417v22.6c8.2,9.7,18.6,17.1,26.4,17.1h11.9C459.8,59.2,465.2,56.8,470.5,52.9z"/>
		<path class="st3" d="M404.7,22.2c-3.8-6.4-6.2-13.2-6.2-19.2c0,0,0-7.7,0-24c0-51.1,90.3-51.1,90.3,0c0,20.9,0,24,0,24
			c0,19.3-24.5,45.7-39.3,45.7h-11.9c-7.4,0-17.1-6.5-25.1-15.5"/>
		<path class="st4" d="M488.9-21c0-10.8-4.1-19.4-10.5-25.6c0,17.3,0,49.6,0,49.6c0,19.3-24.5,45.7-39.3,45.7h10.5
			C464.5,48.7,489,22.3,489,3C489,3,488.9-0.2,488.9-21z"/>
		<path class="st5" d="M481.9,75l9.7,4.3c0.7-3.1,1.5-6.3,2.3-9.2l-10.8-4.7C483,68.5,482.6,71.8,481.9,75z"/>
		<path d="M513.9,92.4c1.9,0,3.4-1.5,3.4-3.4v-3.4c0-5.4-3.2-10.3-8.1-12.5l-13.8-6.1c0,0,0,0-0.1,0c-1.6-0.7,6.1,2.7-17.4-7.7
			c-2.4-1.1-4-3.5-4-6.1V39c1.2-1.2,2.4-2.4,3.5-3.7c3.8-4.2,6.9-8.7,9.3-13.2c8.5-1.9,14-4.1,16.4-6.6c6.4-6.7,8.9-27.4,6.7-35.6
			c-0.9-3.3-5.7-8.6-8.2-11.2v-12.1c0-22.5-18.1-46.7-57.8-46.7c-14.8,0-27.4,3.3-37.3,9.9c-1.6,1-2,3.1-1,4.7c1,1.6,3.1,2,4.7,1
			c5.4-3.6,11.8-6.1,19-7.4c-0.8,10.2-2.8,17.6-6.2,22.9c-4.5,1.7-8.7,3.9-12.3,6.6C400.6-44.8,395.2-34,395.2-21
			c0,16.2,0,23.9,0,24c0,3.5,0.7,7.3,2.1,11.3c-4.7-1.3-7.2-2.6-8-3.4c-3.7-3.8-7.2-21.3-5-29.2c0.4-1.3,3.9-5.6,7.5-9.2
			c0.6-0.6,1-1.5,1-2.4v-13.5c0-8.1,2.9-16.2,8.1-22.8c1.2-1.5,0.9-3.6-0.5-4.7c-1.5-1.2-3.6-0.9-4.7,0.5c-6.2,7.7-9.6,17.3-9.6,27
			v12.1c-2.5,2.6-7.3,7.9-8.2,11.2c-2.2,8.2,0.2,28.8,6.7,35.6c2.4,2.5,7.9,4.7,16.4,6.6c0.3,0.6,0.7,1.2,1,1.8
			c0.9,1.6,3,2.1,4.6,1.2c1.6-0.9,2.1-3,1.2-4.6c-3.7-6.4-5.7-12.4-5.7-17.5c0-0.1,0-7.9,0-24c0-35.2,47.5-43.6,70.8-26
			c8.4,6.3,12.8,15.3,12.8,26c0,20,0,23.7,0,24c0,8-5.1,18.6-13.2,27.8c-2.5,2.8-4.1,4.2-4.3,4.5c-11.9,11.2-19.2,9.9-19.5,10
			c-0.1,0-10.6,0-10.7,0c-7.7,0-17.2-8.4-22.6-14.4c-1.2-1.4-3.4-1.5-4.8-0.3c-1.4,1.2-1.5,3.4-0.3,4.8c1.1,1.3,2.3,2.5,3.4,3.6
			v14.2c0,2.7-1.6,5.1-4,6.1c-1.6,0.7,6.1-2.7-17.4,7.7c0,0,0,0-0.1,0l-13.8,6.1c-4.9,2.2-8.1,7.1-8.1,12.5v30.9
			c0,3.7,2.2,7.2,5.5,8.8c40.5,19.7,95.4,19.7,136,0c3.3-1.6,5.5-5.1,5.5-8.8v-14c0-1.9-1.5-3.4-3.4-3.4s-3.4,1.5-3.4,3.4v14
			c0,1.2-0.7,2.2-1.7,2.7c-2.4,1.1-4.8,2.2-7.2,3.2c-1.1-4.6-3.2-8.9-5.1-12.9c-1.9-4-3.8-7.7-4.1-10.8c-0.4-4.1,1-12.6,3.8-24
			l10.2,4.5c2.5,1.1,4.1,3.6,4.1,6.3V89C510.5,90.8,512,92.4,513.9,92.4z M431.8-61.6c2.3-5.7,3.7-12.7,4.3-21.4
			c2.5-0.2,5.1-0.3,7.7-0.3c2.7,0,5.2,0.1,7.7,0.4c0.6,8.7,1.9,15.7,4.3,21.4C447.9-63.1,439.6-63.1,431.8-61.6z M476.8-52.5
			c-3.6-2.7-7.8-5-12.3-6.6c-3.4-5.3-5.5-12.7-6.2-22.9c23.7,4.6,36.5,21,36.5,38.7v13.5c0,0.9,0.4,1.8,1,2.4
			c3.6,3.6,7.1,7.9,7.5,9.2c2.1,7.8-1.4,25.3-5,29.2c-0.8,0.8-3.3,2.1-8,3.4c1.4-4,2.1-7.8,2.1-11.3c0,0,0,0,0,0c0,0,0-3.4,0-24
			C492.3-34,486.9-44.8,476.8-52.5z M455.7,62.9c-0.5,0.3-2.7-0.7-4.7-4.6c-1-1.9-0.8-4-0.4-5.5c1.5,0.6,3.2,1.7,4.2,3.6
			C456.7,60.3,456.2,62.6,455.7,62.9z M443.8,52.1C443.8,52.1,443.8,52.1,443.8,52.1L443.8,52.1C443.8,52.1,443.8,52.1,443.8,52.1z
			 M432.8,56.3c1-1.9,2.8-3,4.2-3.6c0.4,1.5,0.6,3.6-0.4,5.6c-2,3.9-4.2,4.9-4.7,4.6C431.3,62.6,430.8,60.3,432.8,56.3z M412.3,65.6
			c4.9-2.1,8-7,8-12.3v-8.4c2.9,2.2,5.9,3.9,8.7,5.1c-0.9,0.9-1.7,2-2.3,3.3c-4.1,8-1.9,13.6,2,15.6c1,0.5,2.1,0.8,3.3,0.8
			c3.5,0,7.5-2.4,10.5-8.4c0.6-1.1,0.9-2.2,1.2-3.3c0.2,1.1,0.6,2.2,1.2,3.3c3,6,7,8.4,10.5,8.4c1.2,0,2.3-0.3,3.3-0.8
			c3.9-2,6.1-7.6,2-15.6c0,0,0,0,0,0c-0.6-1.3-1.4-2.3-2.3-3.2c2.8-1.2,5.8-2.9,8.7-5.1v8.4c0,5.3,3.2,10.2,8,12.3l4.5,2
			c-0.5,6.3-2.2,14.3-7.5,20.8c-6.1,7.5,32.2,32.8,1.6,41.7c-24,7-86.5-6.7-94-13.5c-0.2-1.3-0.3-28.8-0.2-35.8L412.3,65.6z"/>
		<path d="M420.7-7.1v1.4c0,1.9,1.5,3.4,3.4,3.4c1.9,0,3.4-1.5,3.4-3.4v-1.4c0-1.9-1.5-3.4-3.4-3.4C422.2-10.5,420.7-9,420.7-7.1z"
			/>
		<path d="M460.1-7.1v1.4c0,1.9,1.5,3.4,3.4,3.4c1.9,0,3.4-1.5,3.4-3.4v-1.4c0-1.9-1.5-3.4-3.4-3.4C461.6-10.5,460.1-9,460.1-7.1z"
			/>
		<path d="M470.7-15.4c1.2,0,2.4-0.7,3-1.9c0.8-1.7,0.1-3.7-1.5-4.5c-6-3-12.1-3-18.1,0c-1.7,0.8-2.4,2.8-1.5,4.5s2.8,2.4,4.5,1.5
			c4.1-2,8.1-2,12.2,0C469.7-15.6,470.2-15.4,470.7-15.4z"/>
		<path d="M433.4-21.8c-6-3-12.1-3-18.1,0c-1.7,0.8-2.4,2.8-1.5,4.5c0.8,1.7,2.8,2.4,4.5,1.5c4.1-2,8.1-2,12.2,0
			c0.5,0.2,1,0.3,1.5,0.3c1.2,0,2.4-0.7,3-1.9C435.8-19,435.1-21,433.4-21.8z"/>
		<path d="M443.8,26.1c-2.9,0-5.6-0.9-8-2.5c-1.5-1.1-3.6-0.7-4.7,0.8c-1.1,1.5-0.7,3.6,0.8,4.7c3.5,2.5,7.6,3.8,11.9,3.8
			s8.3-1.3,11.9-3.8c1.5-1.1,1.9-3.2,0.8-4.7c-1.1-1.5-3.2-1.9-4.7-0.8C449.4,25.2,446.6,26.1,443.8,26.1z"/>
	</g>
	<g>
		<path class="st0" d="M593-19.2c-0.9-3.3-8.3-10.7-8.3-10.7s0-6.7,0-13.5c0-19.8-15.7-43.4-54.4-43.4s-54.4,23.6-54.4,43.4v13.5
			c0,0-7.5,7.4-8.3,10.7c-2,7.4,0.5,26.8,5.9,32.4c3.8,4,19.1,6.5,19.1,6.5H568c0,0,15.3-2.6,19.1-6.5C592.5,7.6,595-11.7,593-19.2z
			"/>
		<path class="st1" d="M593-19.2c-0.9-3.3-8.3-10.7-8.3-10.7s0-6.7,0-13.5c0-19.8-15.7-43.4-54.4-43.4c-2,0-4,0.1-5.9,0.2
			c34.4,2.3,48.5,24.4,48.5,43.2v13.5c0,0,7.5,7.4,8.3,10.7c2,7.4-0.5,26.8-5.9,32.4c-3.8,4-19.1,6.5-19.1,6.5H568
			c0,0,15.3-2.6,19.1-6.5C592.5,7.6,595-11.7,593-19.2z"/>
		<path class="st6" d="M519.3-86c-0.9,22.2-6.8,32.1-16.8,38H558c-10-5.8-15.9-15.8-16.8-38c-3.4-0.4-7.1-0.7-10.9-0.7
			C526.4-86.7,522.7-86.5,519.3-86z"/>
		<path class="st7" d="M600.4,85.6v30.9c0,2.5-1.4,4.7-3.6,5.8c-18.7,9.1-41.7,14.4-66.5,14.4c-24.9,0-47.8-5.4-66.5-14.4
			c-2.2-1.1-3.6-3.3-3.6-5.8V85.6c0-4.1,2.4-7.8,6.1-9.4l31.2-13.8c3.7-1.6,6-5.2,6-9.2V19.6H557v33.7c0,4,2.4,7.6,6,9.2l31.2,13.8
			C598,77.9,600.4,81.6,600.4,85.6z"/>
		<path class="st8" d="M594.2,76.2L563,62.5c-3.7-1.6-6-5.2-6-9.2V19.6h-53.5V25h42.7v33.7c0,4,2.4,7.6,6,9.2l31.2,13.8
			c3.7,1.6,6.1,5.3,6.1,9.4v30.9c0,1.6-0.6,3.1-1.6,4.2c3-1.2,5.9-2.5,8.8-3.9c2.2-1.1,3.6-3.3,3.6-5.8V85.6
			C600.4,81.6,598,77.9,594.2,76.2z"/>
		<path class="st7" d="M557,52.9V19.6h-53.5v22.6c8.2,9.7,18.6,17.1,26.4,17.1h11.9C546.3,59.2,551.7,56.8,557,52.9z"/>
		<path class="st7" d="M491.2,22.2C487.4,15.8,485,9,485,3c0,0,0-7.7,0-24c0-51.1,90.3-51.1,90.3,0c0,20.9,0,24,0,24
			c0,19.3-24.5,45.7-39.3,45.7h-11.9c-7.4,0-17.1-6.5-25.1-15.5"/>
		<path class="st8" d="M575.4-21c0-10.8-4.1-19.4-10.5-25.6c0,17.3,0,49.6,0,49.6c0,19.3-24.5,45.7-39.3,45.7h10.5
			c14.8,0,39.3-26.4,39.3-45.7C575.5,3,575.4-0.2,575.4-21z"/>
		<path class="st6" d="M475.1,127.1c16.3,6.1,35.1,9.6,55.1,9.6c20,0,38.8-3.5,55.1-9.6c-0.7-10.4-9.1-19.9-9.9-28
			c-0.6-6.3,2.3-19.1,4.9-29l-10.8-4.7c-0.6,16.7-8.5,37.5-39.4,37.5c-30.8,0-38.8-20.8-39.4-37.5l-10.8,4.7c2.6,10,5.5,22.7,4.9,29
			C484.3,107.2,475.8,116.7,475.1,127.1z"/>
		<path class="st5" d="M568.4,75l9.7,4.3c0.7-3.1,1.5-6.3,2.3-9.2l-10.8-4.7C569.5,68.5,569.1,71.8,568.4,75z"/>
		<path d="M600.4,92.4c1.9,0,3.4-1.5,3.4-3.4v-3.4c0-5.4-3.2-10.3-8.1-12.5l-13.8-6.1c0,0,0,0-0.1,0c-1.6-0.7,6.1,2.7-17.4-7.7
			c-2.4-1.1-4-3.5-4-6.1V39c1.2-1.2,2.4-2.4,3.5-3.7c3.8-4.2,6.9-8.7,9.3-13.2c8.5-1.9,14-4.1,16.4-6.6c6.4-6.7,8.9-27.4,6.7-35.6
			c-0.9-3.3-5.7-8.6-8.2-11.2v-12.1c0-22.5-18.1-46.7-57.8-46.7c-14.8,0-27.4,3.3-37.3,9.9c-1.6,1-2,3.1-1,4.7c1,1.6,3.1,2,4.7,1
			c5.4-3.6,11.8-6.1,19-7.4c-0.8,10.2-2.8,17.6-6.2,22.9c-4.5,1.7-8.7,3.9-12.3,6.6C487.1-44.8,481.7-34,481.7-21
			c0,16.2,0,23.9,0,24c0,3.5,0.7,7.3,2.1,11.3c-4.7-1.3-7.2-2.6-8-3.4c-3.7-3.8-7.2-21.3-5-29.2c0.4-1.3,3.9-5.6,7.5-9.2
			c0.6-0.6,1-1.5,1-2.4v-13.5c0-8.1,2.9-16.2,8.1-22.8c1.2-1.5,0.9-3.6-0.5-4.7c-1.5-1.2-3.6-0.9-4.7,0.5c-6.2,7.7-9.6,17.3-9.6,27
			v12.1c-2.5,2.6-7.3,7.9-8.2,11.2c-2.2,8.2,0.2,28.8,6.7,35.6c2.4,2.5,7.9,4.7,16.4,6.6c0.3,0.6,0.7,1.2,1,1.8
			c0.9,1.6,3,2.1,4.6,1.2c1.6-0.9,2.1-3,1.2-4.6c-3.7-6.4-5.7-12.4-5.7-17.5c0-0.1,0-7.9,0-24c0-35.2,47.5-43.6,70.8-26
			c8.4,6.3,12.8,15.3,12.8,26c0,20,0,23.7,0,24c0,8-5.1,18.6-13.2,27.8c-2.5,2.8-4.1,4.2-4.3,4.5c-11.9,11.2-19.2,9.9-19.5,10
			c-0.1,0-10.6,0-10.7,0c-7.7,0-17.2-8.4-22.6-14.4c-1.2-1.4-3.4-1.5-4.8-0.3c-1.4,1.2-1.5,3.4-0.3,4.8c1.1,1.3,2.3,2.5,3.4,3.6
			v14.2c0,2.7-1.6,5.1-4,6.1c-1.6,0.7,6.1-2.7-17.4,7.7c0,0,0,0-0.1,0l-13.8,6.1c-4.9,2.2-8.1,7.1-8.1,12.5v30.9
			c0,3.7,2.2,7.2,5.5,8.8c40.5,19.7,95.4,19.7,136,0c3.3-1.6,5.5-5.1,5.5-8.8v-14c0-1.9-1.5-3.4-3.4-3.4s-3.4,1.5-3.4,3.4v14
			c0,1.2-0.7,2.2-1.7,2.7c-2.4,1.1-4.8,2.2-7.2,3.2c-1.1-4.6-3.2-8.9-5.1-12.9c-1.9-4-3.8-7.7-4.1-10.8c-0.4-4.1,1-12.6,3.8-24
			l10.2,4.5c2.5,1.1,4.1,3.6,4.1,6.3V89C597,90.8,598.5,92.4,600.4,92.4z M518.3-61.6c2.3-5.7,3.7-12.7,4.3-21.4
			c2.5-0.2,5.1-0.3,7.7-0.3c2.7,0,5.2,0.1,7.7,0.4c0.6,8.7,1.9,15.7,4.3,21.4C534.4-63.1,526.1-63.1,518.3-61.6z M563.3-52.5
			c-3.6-2.7-7.8-5-12.3-6.6c-3.4-5.3-5.5-12.7-6.2-22.9c23.7,4.6,36.5,21,36.5,38.7v13.5c0,0.9,0.4,1.8,1,2.4
			c3.6,3.6,7.1,7.9,7.5,9.2c2.1,7.8-1.4,25.3-5,29.2c-0.8,0.8-3.3,2.1-8,3.4c1.4-4,2.1-7.8,2.1-11.3c0,0,0,0,0,0c0,0,0-3.4,0-24
			C578.8-34,573.4-44.8,563.3-52.5z M542.2,62.9c-0.5,0.3-2.7-0.7-4.8-4.6c-1-1.9-0.8-4-0.4-5.5c1.5,0.6,3.2,1.7,4.2,3.6
			C543.2,60.3,542.7,62.6,542.2,62.9z M530.2,52.1C530.2,52.1,530.2,52.1,530.2,52.1L530.2,52.1C530.2,52.1,530.2,52.1,530.2,52.1z
			 M519.3,56.3c1-1.9,2.8-3,4.2-3.6c0.4,1.5,0.6,3.6-0.4,5.6c-2,3.9-4.2,4.9-4.8,4.6C517.8,62.6,517.3,60.3,519.3,56.3z M498.8,65.6
			c4.9-2.1,8-7,8-12.3v-8.4c2.9,2.2,5.9,3.9,8.7,5.1c-0.9,0.9-1.7,2-2.3,3.3c-4.1,8-1.9,13.6,2,15.6c1,0.5,2.1,0.8,3.3,0.8
			c3.5,0,7.5-2.4,10.5-8.4c0.6-1.1,0.9-2.2,1.2-3.3c0.2,1.1,0.6,2.2,1.2,3.3c3,6,7,8.4,10.5,8.4c1.2,0,2.3-0.3,3.3-0.8
			c3.9-2,6.1-7.6,2-15.6c0,0,0,0,0,0c-0.6-1.3-1.4-2.3-2.3-3.2c2.8-1.2,5.8-2.9,8.7-5.1v8.4c0,5.3,3.2,10.2,8,12.3l4.5,2
			c-0.5,6.3-2.2,14.3-7.5,20.8c-6.1,7.5-15.6,11.3-28.4,11.3s-22.3-3.8-28.4-11.3c-5.2-6.4-7-14.5-7.5-20.8L498.8,65.6z
			 M463.5,116.5V85.6c0-2.7,1.6-5.2,4.1-6.3l10.2-4.5c2.9,11.4,4.2,19.9,3.8,24c-0.3,3.1-2.1,6.8-4.1,10.8c-1.9,3.9-4,8.2-5.1,12.9
			c-2.5-1-4.9-2.1-7.2-3.2C464.2,118.7,463.5,117.7,463.5,116.5z M572.1,99.5c0.4,4.3,2.5,8.6,4.7,13.1c2,4,4,8.1,4.8,12.3
			c-32.2,11.3-70.8,11.2-102.9,0c0.8-4.1,2.9-8.3,4.8-12.3c2.2-4.5,4.3-8.8,4.7-13.1c0.5-5.2-0.9-14.4-4.3-27.4l3.8-1.7
			c0.8,6.9,3.1,15.2,8.7,22.2c7.4,9.1,18.7,13.8,33.6,13.8s26.2-4.6,33.6-13.8c5.6-6.9,7.9-15.2,8.7-22.2l3.8,1.7
			C573,85.1,571.6,94.3,572.1,99.5z"/>
		<path d="M507.2-7.1v1.4c0,1.9,1.5,3.4,3.4,3.4c1.9,0,3.4-1.5,3.4-3.4v-1.4c0-1.9-1.5-3.4-3.4-3.4C508.7-10.5,507.2-9,507.2-7.1z"
			/>
		<path d="M546.6-7.1v1.4c0,1.9,1.5,3.4,3.4,3.4c1.9,0,3.4-1.5,3.4-3.4v-1.4c0-1.9-1.5-3.4-3.4-3.4C548.1-10.5,546.6-9,546.6-7.1z"
			/>
		<path d="M557.2-15.4c1.2,0,2.4-0.7,3-1.9c0.8-1.7,0.1-3.7-1.5-4.5c-6-3-12.1-3-18.1,0c-1.7,0.8-2.4,2.8-1.5,4.5s2.8,2.4,4.5,1.5
			c4.1-2,8.1-2,12.2,0C556.2-15.6,556.7-15.4,557.2-15.4z"/>
		<path d="M519.9-21.8c-6-3-12.1-3-18.1,0c-1.7,0.8-2.4,2.8-1.5,4.5c0.8,1.7,2.8,2.4,4.5,1.5c4.1-2,8.1-2,12.2,0
			c0.5,0.2,1,0.3,1.5,0.3c1.2,0,2.4-0.7,3-1.9C522.3-19,521.6-21,519.9-21.8z"/>
		<path d="M530.2,11.1c-2.9,0-5.6-0.9-8-2.5c-1.5-1.1-3.6-0.7-4.7,0.8c-1.1,1.5-0.7,3.6,0.8,4.7c3.5,2.5,7.6,3.8,11.9,3.8
			s8.3-1.3,11.9-3.8c1.5-1.1,1.9-3.2,0.8-4.7c-1.1-1.5-3.2-1.9-4.7-0.8C535.9,10.2,533.1,11.1,530.2,11.1z"/>
	</g>
</g>
</svg>
