<svg height="512pt" viewBox="-93 0 512 512.0015" width="512pt" xmlns="http://www.w3.org/2000/svg"><path d="m303.0625 157.730469c-1.980469-7.265625-18.566406-23.730469-18.566406-23.730469s0-14.8125 0-30.054688c0-43.945312-35-96.445312-121-96.445312s-121 52.5-121 96.445312v30.054688s-16.585938 16.464844-18.5625 23.730469c-4.507813 16.546875 1.183594 59.59375 13.027344 71.996093 8.421874 8.8125 42.535156 14.546876 42.535156 14.546876h168s34.117187-5.734376 42.535156-14.546876c11.84375-12.402343 17.535156-55.449218 13.03125-71.996093zm0 0" fill="#e6eff5"/><path d="m303.0625 157.730469c-1.980469-7.265625-18.566406-23.730469-18.566406-23.730469s0-14.8125 0-30.054688c0-43.945312-35-96.445312-121-96.445312-4.519532 0-8.890625.152344-13.128906.433594 76.441406 5.070312 107.871093 54.375 107.871093 96.011718v30.054688s16.585938 16.464844 18.5625 23.730469c4.507813 16.546875-1.183593 59.59375-13.03125 71.996093-8.417969 8.8125-42.53125 14.546876-42.53125 14.546876h26.257813s34.117187-5.734376 42.535156-14.546876c11.84375-12.402343 17.535156-55.449218 13.03125-71.996093zm0 0" fill="#b4cbdb"/><path d="m139.167969 9.027344c-2.109375 49.316406-15.082031 71.46875-37.414063 84.472656h123.488282c-22.332032-13.003906-35.304688-35.15625-37.414063-84.472656-7.613281-.992188-15.710937-1.527344-24.332031-1.527344s-16.71875.535156-24.328125 1.527344zm0 0" fill="#3872b7"/><path d="m319.492188 390.882812v68.691407c0 5.457031-3.128907 10.410156-8.03125 12.796875-41.527344 20.207031-92.664063 32.128906-147.964844 32.128906-55.296875 0-106.433594-11.921875-147.960938-32.128906-4.90625-2.386719-8.035156-7.34375-8.035156-12.796875v-68.691407c0-9.050781 5.351562-17.246093 13.632812-20.902343l69.480469-30.625c8.128907-3.578125 13.382813-11.640625 13.382813-20.527344v-74.871094h119.003906v74.871094c0 8.886719 5.25 16.949219 13.378906 20.527344l69.480469 30.625c8.285156 3.65625 13.632813 11.851562 13.632813 20.902343zm0 0" fill="#c98c4f"/><path d="m305.859375 369.980469-69.480469-30.625c-8.128906-3.578125-13.382812-11.640625-13.382812-20.527344v-74.871094h-119v12.042969h95.003906v74.871094c0 8.886718 5.25 16.949218 13.378906 20.527344l69.480469 30.628906c8.285156 3.652344 13.632813 11.847656 13.632813 20.898437v68.695313c0 3.5-1.292969 6.789062-3.511719 9.332031 6.699219-2.664063 13.199219-5.527344 19.476562-8.582031 4.90625-2.386719 8.035157-7.34375 8.035157-12.796875v-68.691407c0-9.050781-5.347657-17.246093-13.632813-20.902343zm0 0" fill="#af6a3a"/><path d="m222.996094 317.984375v-74.027344h-119v50.242188c18.183594 21.671875 41.480468 37.933593 58.808594 37.933593h26.382812c9.996094 0 21.972656-5.414062 33.808594-14.148437zm0 0" fill="#af6a3a"/><path d="m76.652344 249.816406c-8.371094-14.273437-13.730469-29.300781-13.730469-42.789062 0 0 .09375-17.027344.09375-53.4375 0-113.589844 200.960937-113.589844 200.960937 0 0 46.453125.097657 53.4375.097657 53.4375 0 42.996094-54.464844 101.660156-87.386719 101.660156h-26.382812c-16.398438 0-38.144532-14.558594-55.839844-34.484375" fill="#c98c4f"/><path d="m263.976562 153.589844c0-24.085938-9.035156-43.0625-23.277343-56.933594.027343 38.535156.039062 110.371094.039062 110.371094 0 42.996094-54.460937 101.660156-87.382812 101.660156h23.332031c32.921875 0 87.382812-58.664062 87.382812-101.660156 0 0-.09375-6.984375-.09375-53.4375zm0 0" fill="#af6a3a"/><path d="m40.863281 483.203125c36.285157 13.5625 78.105469 21.296875 122.632813 21.296875s86.351562-7.734375 122.636718-21.296875c-1.621093-23.15625-20.332031-44.375-22.058593-62.203125-1.367188-14.058594 5.054687-42.457031 10.933593-64.617188l-23.96875-10.566406c-1.238281 37.167969-18.984374 83.515625-87.542968 83.515625-68.554688 0-86.300782-46.347656-87.539063-83.515625l-23.96875 10.566406c5.878907 22.160157 12.296875 50.558594 10.933594 64.617188-1.730469 17.828125-20.4375 39.046875-22.058594 62.203125zm0 0" fill="#3872b7"/><path d="m248.386719 367.269531 21.5625 9.507813c1.59375-6.988282 3.347656-13.957032 5.058593-20.394532l-23.96875-10.566406c-.230468 6.953125-1.042968 14.222656-2.652343 21.453125zm0 0" fill="#254d87"/><path d="m319.492188 405.824219c4.144531 0 7.5-3.359375 7.5-7.5v-7.453125c0-12.007813-7.109376-22.902344-18.113282-27.761719l-30.695312-13.523437c-.050782-.027344-.101563-.050782-.152344-.070313-3.574219-1.574219 13.675781 6.023437-38.632812-17.023437-5.410157-2.382813-8.902344-7.746094-8.902344-13.667969v-31.574219c2.644531-2.613281 5.261718-5.386719 7.84375-8.304688 8.34375-9.425781 15.335937-19.394531 20.722656-29.339843 18.808594-4.167969 31.039062-9.109375 36.386719-14.699219 14.324219-14.988281 19.796875-60.960938 14.851562-79.148438-2.007812-7.378906-12.703125-19.085937-18.304687-24.84375v-26.964843c0-50.066407-40.214844-103.949219-128.5-103.949219-32.996094 0-60.914063 7.378906-82.976563 21.929688-3.457031 2.28125-4.414062 6.929687-2.132812 10.386718 2.28125 3.460938 6.933593 4.414063 10.390625 2.132813 12.058594-7.953125 26.230468-13.488281 42.355468-16.566407-1.742187 22.746094-6.21875 39.179688-13.875 51.035157-10.027343 3.722656-19.257812 8.683593-27.351562 14.785156-22.496094 16.953125-34.386719 41.117187-34.386719 69.882813 0 35.964843-.09375 53.226562-.097656 53.4375 0 7.832031 1.597656 16.320312 4.691406 25.160156-10.351562-2.964844-15.953125-5.789063-17.722656-7.636719-8.132813-8.515625-15.964844-47.410156-11.226563-64.847656.804688-2.863281 8.570313-12.386719 16.617188-20.378907 1.417969-1.40625 2.21875-3.324218 2.21875-5.324218v-30.046875c0-18.066407 6.394531-36.046875 18.003906-50.628907 2.582032-3.238281 2.046875-7.957031-1.191406-10.539062-3.242188-2.578125-7.960938-2.042969-10.539062 1.195312-13.71875 17.226563-21.273438 38.527344-21.273438 59.972657v26.964843c-5.601562 5.757813-16.296875 17.464844-18.308594 24.847657-4.945312 18.183593.53125 64.15625 14.855469 79.148437 5.355469 5.597656 17.582031 10.535156 36.375 14.695313.726563 1.332031 1.476563 2.664062 2.261719 4 2.09375 3.574219 6.6875 4.773437 10.261718 2.675781 3.574219-2.09375 4.769532-6.6875 2.675782-10.261719-8.308594-14.167969-12.699219-27.652343-12.699219-38.953125 0-.171875.097656-17.464844.097656-53.480468 0-78.316407 105.605469-97.046876 157.542969-57.902344 18.589844 14.007812 28.414062 34.03125 28.414062 57.902344 0 44.386718.085938 52.703124.09375 53.484374-.019531 17.6875-11.304687 41.414063-29.460937 61.9375-5.554687 6.277344-9.09375 9.375-9.585937 9.902344-26.511719 24.953125-42.816407 22.085938-43.4375 22.269532-.289063-.003907-23.675782 0-23.78125 0-17.070313 0-38.371094-18.609376-50.230469-31.960938-2.75-3.097656-7.488281-3.375-10.585938-.628906-3.097656 2.753906-3.378906 7.492187-.628906 10.589844 2.515625 2.832031 5.066406 5.523437 7.640625 8.070312v31.574219c0 5.921875-3.496094 11.285156-8.90625 13.667969-3.582031 1.578124 13.679688-6.027344-38.628906 17.023437-.054688.023437-.109375.046875-.164063.074219l-30.6875 13.523437c-11.003906 4.855469-18.113281 15.753907-18.113281 27.761719v68.699219c0 8.242187 4.8125 15.910156 12.257812 19.53125 90.058594 43.835937 212.320313 43.886719 302.480469 0 7.445313-3.621094 12.257813-11.289063 12.257813-19.53125v-31.25c0-4.140625-3.355469-7.5-7.5-7.5-4.144532 0-7.5 3.355469-7.5 7.5v31.25c0 2.582031-1.464844 4.898437-3.824219 6.046875-5.246094 2.554687-10.617187 4.957031-16.101563 7.210937-2.441406-10.261719-7.160156-19.867187-11.445312-28.585937-4.332031-8.820313-8.425781-17.148438-9.089844-23.976563-.890625-9.1875 2.121094-28.003906 8.523438-53.46875l22.769531 10.035157c5.570313 2.457031 9.167969 7.96875 9.167969 14.039062v7.449219c-.003906 4.140625 3.355468 7.5 7.496094 7.5zm-182.632813-342.386719c5.125-12.667969 8.203125-28.285156 9.457031-47.675781 5.535156-.507813 11.261719-.761719 17.179688-.761719 5.902344 0 11.632812.261719 17.179687.78125 1.253907 19.382812 4.332031 34.992188 9.457031 47.65625-17.328124-3.390625-35.929687-3.390625-53.273437 0zm100.230469 20.265625c-8.09375-6.097656-17.328125-11.0625-27.355469-14.78125-7.648437-11.851563-12.125-28.269531-13.871094-50.992187 52.753907 10.15625 81.128907 46.746093 81.128907 86.019531v30.046875c0 2 .800781 3.914062 2.21875 5.324218 8.050781 7.992188 15.816406 17.515626 16.617187 20.375 4.742187 17.441407-3.09375 56.335938-11.222656 64.847657-1.769531 1.847656-7.382813 4.671875-17.761719 7.640625 3.085938-8.816406 4.726562-17.34375 4.726562-25.160156 0-.035157 0-.070313 0-.101563-.003906-.070313-.09375-7.640625-.09375-53.335937 0-28.765626-11.890624-52.929688-34.386718-69.882813zm-47.058594 256.632813c-1.199219.609374-6.113281-1.566407-10.566406-10.339844-2.183594-4.300782-1.808594-8.921875-.953125-12.34375 3.273437 1.332031 7.222656 3.753906 9.40625 8.050781 4.453125 8.769531 3.3125 14.019531 2.113281 14.632813zm-26.535156-24.148438s0-.003906 0-.007812h.003906c-.003906.003906-.003906.007812-.003906.007812zm-24.417969 9.515625c2.183594-4.304687 6.148437-6.726563 9.414063-8.054687.855468 3.414062 1.230468 8.027343-.960938 12.347656-4.457031 8.769531-9.371094 10.949218-10.566406 10.339844-1.203125-.613282-2.339844-5.863282 2.113281-14.632813zm-45.4375 20.515625c10.847656-4.777344 17.855469-15.53125 17.855469-27.394531v-18.585938c6.554687 4.890625 13.082031 8.746094 19.367187 11.441407-1.945312 2.011718-3.722656 4.398437-5.160156 7.234374-9.070313 17.859376-4.289063 30.34375 4.46875 34.792969 2.226563 1.128907 4.710937 1.746094 7.335937 1.746094 7.726563 0 16.625-5.335937 23.394532-18.667969 1.257812-2.472656 2.085937-4.949218 2.59375-7.371094.507812 2.421876 1.335937 4.898438 2.59375 7.371094 6.769531 13.332032 15.671875 18.667969 23.394531 18.667969 2.625 0 5.113281-.617187 7.335937-1.746094 8.761719-4.449219 13.539063-16.933593 4.472657-34.792969 0 0 0 0 0-.003906-1.441407-2.832031-3.214844-5.21875-5.15625-7.226562 6.285156-2.695313 12.808593-6.550782 19.359375-11.441406v18.582031c0 11.863281 7.011718 22.617187 17.855468 27.394531l9.917969 4.371094c-1.066406 13.96875-4.972656 31.875-16.582031 46.191406-13.476562 16.617188-34.734375 25.042969-63.191406 25.042969-28.457032 0-49.714844-8.425781-63.1875-25.042969-11.609375-14.320312-15.519532-32.222656-16.582032-46.195312zm-78.640625 113.351562v-68.699218c0-6.066406 3.597656-11.578125 9.164062-14.035156l22.773438-10.035157c6.398438 25.464844 9.414062 44.28125 8.519531 53.46875-.660156 6.824219-4.753906 15.15625-9.085937 23.972657-4.285156 8.722656-9.003906 18.328124-11.445313 28.589843-5.484375-2.253906-10.855469-4.660156-16.105469-7.214843-2.355468-1.148438-3.820312-3.464844-3.820312-6.046876zm241.605469-37.851562c.925781 9.542969 5.601562 19.0625 10.554687 29.140625 4.390625 8.933594 8.90625 18.125 10.734375 27.34375-71.5625 25.109375-157.578125 24.988281-228.796875 0 1.828125-9.21875 6.34375-18.410156 10.734375-27.34375 4.953125-10.078125 9.628907-19.597656 10.554688-29.144531 1.113281-11.457032-2.09375-31.980469-9.527344-61.050782l8.417969-3.707031c1.804687 15.355469 6.851562 33.820313 19.378906 49.273438 16.460938 20.300781 41.640625 30.59375 74.839844 30.59375 33.199218 0 58.378906-10.292969 74.839844-30.59375 12.53125-15.453125 17.574218-33.917969 19.378906-49.273438l8.421875 3.707031c-7.4375 29.070313-10.644531 49.589844-9.53125 61.054688zm0 0"/><path d="m112.128906 184.5v3.160156c0 4.140625 3.359375 7.5 7.5 7.5 4.144532 0 7.5-3.359375 7.5-7.5v-3.160156c0-4.140625-3.355468-7.5-7.5-7.5-4.140625 0-7.5 3.359375-7.5 7.5zm0 0"/><path d="m199.863281 184.5v3.160156c0 4.140625 3.359375 7.5 7.5 7.5s7.5-3.359375 7.5-7.5v-3.160156c0-4.140625-3.355469-7.5-7.5-7.5-4.140625 0-7.5 3.359375-7.5 7.5zm0 0"/><path d="m223.441406 166.03125c2.769532 0 5.433594-1.539062 6.738282-4.195312 1.824218-3.71875.289062-8.210938-3.429688-10.035157-13.371094-6.566406-26.929688-6.566406-40.296875 0-3.71875 1.824219-5.253906 6.316407-3.429687 10.035157 1.824218 3.71875 6.320312 5.257812 10.039062 3.429687 9.109375-4.476563 17.964844-4.476563 27.078125 0 1.0625.519531 2.191406.765625 3.300781.765625zm0 0"/><path d="m140.542969 151.800781c-13.371094-6.566406-26.929688-6.566406-40.300781 0-3.71875 1.824219-5.253907 6.316407-3.425782 10.035157 1.824219 3.71875 6.316406 5.253906 10.035156 3.429687 9.109376-4.476563 17.96875-4.476563 27.078126 0 1.0625.519531 2.191406.769531 3.300781.769531 2.769531 0 5.433593-1.542968 6.738281-4.199218 1.824219-3.71875.292969-8.210938-3.425781-10.035157zm0 0"/><path d="m163.496094 225.121094c-6.347656 0-12.535156-1.960938-17.886719-5.671875-3.40625-2.363281-8.078125-1.515625-10.4375 1.890625-2.359375 3.402344-1.515625 8.074218 1.890625 10.433594 7.875 5.460937 17.015625 8.347656 26.433594 8.347656 9.417968 0 18.558594-2.886719 26.4375-8.34375 3.402344-2.363282 4.25-7.035156 1.890625-10.4375-2.363281-3.402344-7.03125-4.25-10.4375-1.890625-5.355469 3.710937-11.539063 5.671875-17.890625 5.671875zm0 0"/></svg>