<?xml version="1.0" encoding="utf-8"?>
<!-- Generator: Adobe Illustrator 19.0.0, SVG Export Plug-In . SVG Version: 6.00 Build 0)  -->
<svg version="1.1" id="Capa_1" xmlns="http://www.w3.org/2000/svg" xmlns:xlink="http://www.w3.org/1999/xlink" x="0px" y="0px"
	 viewBox="362 -100 250 250" style="enable-background:new 362 -100 250 250;" xml:space="preserve">
<style type="text/css">
	.st0{fill:#0387D8;}
	.st1{fill:#F9DCA2;}
	.st2{fill:#E5C691;}
	.st3{fill:#E22342;}
	.st4{fill:#C9183A;}
	.st5{fill:#54BBEF;}
	.st6{fill:#EAEAE4;}
	.st7{fill:#CECECC;}
</style>
<path class="st0" d="M369.6,34.8c2.7,0.3,5.6,0.5,9,0.5c28.2,0,28.2-11.5,56.4-11.5c28.2,0,28.2,11.5,56.4,11.5
	c28.2,0,28.2-11.5,56.4-11.5s28.2,11.5,56.4,11.5V69c-28.2,0-28.2,11.5-56.4,11.5c-28.2,0-28.2-11.5-56.4-11.5s-28.2,11.5-56.4,11.5
	c-28.2,0-28.2-11.5-56.4-11.5c-3.4,0-6.4,0.2-9,0.5"/>
<path class="st1" d="M517.4,59.8l-0.2-18.9c-0.1-8.9,7.1-16.2,16-16.2h45.3c3.5,0,6.6-1.4,8.8-3.7c2.3-2.3,3.7-5.5,3.7-9.1
	c-0.1-6.9-5.9-12.3-12.8-12.3h-61.2H501l-28.1,0h-17.6h-31.5L418-23c-0.1-0.5-0.2-0.9-0.4-1.3l-22-6c-3,2.6-4.8,6.4-4.8,10.4
	c0,1,0.1,2.1,0.4,3.1l8.4,33.8c1,4.5,5,7.6,9.6,7.6h30.1c8.9,0,16,7.2,16,16v22.9"/>
<g>
	<path class="st2" d="M465.2,56.5V33.6c0-8.9-7.2-16-16-16h-30.1c-4.6,0-8.6-3.2-9.6-7.6l-8.4-33.8c-0.2-1-0.4-2.1-0.4-3.1
		c0-0.6,0-1.2,0.1-1.8l-5.3-1.4c-3,2.6-4.8,6.4-4.8,10.4c0,1,0.1,2.1,0.4,3.1l8.4,33.8c1,4.5,5,7.6,9.6,7.6h30.1c8.9,0,16,7.2,16,16
		v22.9l62.1-3.9l-0.1-6.6L465.2,56.5z"/>
	<path class="st2" d="M588.5,17.5h-45.3c-5.8,0-10.8,3.1-13.6,7.6c1.2-0.3,2.4-0.4,3.7-0.4h45.3c3.5,0,6.6-1.4,8.8-3.7
		c1-1,1.9-2.3,2.5-3.6C589.5,17.5,589,17.5,588.5,17.5z"/>
</g>
<path class="st3" d="M517.4,59.8l-52.2,3.3l-10,0.6V40.7c4.2-4.2,7-8.7,8.8-13.1c1.9-4.6,2.8-9.1,3-13.1c5.4,4.4,12.3,7,19.8,7
	c6.9,0,13.3-2.2,18.5-6c0.7,7.6,3.5,16.9,11.8,25.1l0,0v0.1L517.4,59.8z"/>
<path class="st4" d="M465.2,66.6l-10-2.9V40.7c4.2-4.2,7-8.7,8.8-13.1c0.7,1.8,1.1,3.8,1.1,5.9V66.6z"/>
<path class="st5" d="M604.4,104.4c-28.2,0-28.2,11.5-56.4,11.5c-28.2,0-28.2-11.5-56.4-11.5s-28.2,11.5-56.4,11.5
	c-28.2,0-28.2-11.5-56.4-11.5c-3.4,0-6.4,0.2-9,0.5V55.1c2.7-0.3,5.7-0.5,9-0.5c28.2,0,28.2,11.5,56.4,11.5
	c28.2,0,28.2-11.5,56.4-11.5s28.2,11.5,56.4,11.5c28.2,0,28.2-11.5,56.4-11.5"/>
<path class="st0" d="M369.6,96.7c2.7,0.3,5.6,0.5,9,0.5c28.2,0,28.2-11.5,56.4-11.5c28.2,0,28.2,11.5,56.4,11.5
	c28.2,0,28.2-11.5,56.4-11.5s28.2,11.5,56.4,11.5v19.4c-28.2,0-28.2,11.5-56.4,11.5c-28.2,0-28.2-11.5-56.4-11.5
	s-28.2,11.5-56.4,11.5c-28.2,0-28.2-11.5-56.4-11.5c-3.4,0-6.4,0.2-9,0.5"/>
<circle class="st6" cx="413.1" cy="-51.1" r="27.2"/>
<path class="st7" d="M402.4-51.1c0-12.1,7.9-22.4,18.9-25.9c-2.6-0.8-5.4-1.3-8.3-1.3c-15,0-27.2,12.2-27.2,27.2S398.1-24,413.1-24
	c2.9,0,5.7-0.5,8.3-1.3C410.4-28.7,402.4-39,402.4-51.1z"/>
<circle class="st1" cx="487" cy="-28.4" r="31.5"/>
<path class="st2" d="M472-28.4c0-14.5,9.8-26.7,23.2-30.4c-2.6-0.7-5.4-1.1-8.3-1.1c-17.4,0-31.5,14.1-31.5,31.5S469.6,3,487,3
	c2.9,0,5.6-0.4,8.3-1.1C481.9-1.7,472-13.9,472-28.4z"/>
<g>
	<path class="st3" d="M518.4-28.4c0,2.8-0.4,5.6-1.1,8.2c-1.8-14.1-14.7-25-30.4-25c-3.9,0-7.7,0.7-11.2,2
		c-10.3,3.7-17.8,12.5-19.2,23c-0.7-2.6-1.1-5.4-1.1-8.2c0-17.4,14.1-31.5,31.5-31.5c2.9,0,5.6,0.4,8.3,1.1c0,0,0,0,0,0
		C508.6-55.2,518.4-42.9,518.4-28.4z"/>
</g>
<path class="st4" d="M495.2-58.8c-8.4,2.3-15.4,8-19.5,15.5c-10.3,3.7-17.8,12.5-19.2,23c-0.7-2.6-1.1-5.4-1.1-8.2
	c0-17.4,14.1-31.5,31.5-31.5C489.8-59.9,492.6-59.5,495.2-58.8C495.2-58.8,495.2-58.8,495.2-58.8z"/>
<path d="M604.4,113.2c-14.8,0-22.3,3.1-29.6,6c-6.9,2.8-13.5,5.5-26.9,5.5c-13.4,0-19.9-2.7-26.9-5.5c-7.3-3-14.8-6-29.6-6
	c-14.8,0-22.3,3.1-29.6,6c-6.9,2.8-13.5,5.5-26.9,5.5c-13.4,0-19.9-2.7-26.9-5.5c-7.3-3-14.8-6-29.6-6c-3.4,0-6.5,0.2-9.4,0.5
	c-2,0.2-3.4,2-3.2,4c0.2,2,2,3.4,4,3.2c2.7-0.3,5.6-0.4,8.7-0.4c13.4,0,19.9,2.7,26.9,5.5c7.3,3,14.8,6,29.6,6
	c14.8,0,22.3-3.1,29.6-6c6.9-2.8,13.5-5.5,26.9-5.5c13.4,0,19.9,2.7,26.9,5.5c7.3,3,14.8,6,29.6,6s22.3-3.1,29.6-6
	c6.9-2.8,13.5-5.5,26.9-5.5c2,0,3.6-1.6,3.6-3.6S606.4,113.2,604.4,113.2z"/>
<path d="M604.4,93.8c-13.4,0-19.9-2.7-26.9-5.5c-7.3-3-14.8-6-29.6-6c-14.8,0-22.3,3.1-29.6,6c-6.9,2.8-13.5,5.5-26.9,5.5
	c-13.4,0-19.9-2.7-26.9-5.5c-7.3-3-14.8-6-29.6-6s-22.3,3.1-29.6,6c-6.9,2.8-13.5,5.5-26.9,5.5c-3.1,0-5.9-0.1-8.7-0.4
	c-2-0.2-3.7,1.2-4,3.2c-0.2,2,1.2,3.7,3.2,4c3,0.3,6.1,0.5,9.4,0.5c14.8,0,22.3-3.1,29.6-6c6.9-2.8,13.5-5.5,26.9-5.5
	c13.4,0,19.9,2.7,26.9,5.5c7.3,3,14.8,6,29.6,6c14.8,0,22.3-3.1,29.6-6c6.9-2.8,13.5-5.5,26.9-5.5s19.9,2.7,26.9,5.5
	c7.3,3,14.8,6,29.6,6c2,0,3.6-1.6,3.6-3.6C608,95.4,606.4,93.8,604.4,93.8z"/>
<path d="M604.3,51.3c-14.7,0-22.2,3.1-29.4,6c-6.9,2.8-13.5,5.5-26.9,5.5c-13.5,0-20-2.7-27-5.5l0,0l-0.1-16.5
	c0-3.5,1.4-6.8,3.9-9.2c2.4-2.2,5.5-3.4,8.8-3.4h25.3c6.7,1,11.2,2.8,16,4.8c7.2,3,14.7,6,29.4,6c2,0,3.7-1.5,3.7-3.5
	c0.1-2-1.6-3.7-3.6-3.7c-10.8,0-17.2-1.7-22.8-3.9c3.2-0.6,6.1-2.1,8.4-4.4c3.1-3.1,4.8-7.3,4.7-11.7c-0.2-8.7-7.5-15.8-16.4-15.8
	h-24.4c-2,0-3.6,1.6-3.6,3.6l0,0c0,2,1.6,3.6,3.6,3.6h24.4c5,0,9.1,3.9,9.2,8.7c0,2.4-0.9,4.7-2.6,6.5c-1.7,1.7-3.9,2.6-6.3,2.6
	h-44.9c-5.2,0-10.2,1.9-14,5.5c-1.9,1.8-3.4,3.9-4.4,6.3c-8.2-11.8-6.7-24.4-5.5-29.6h27.3c2,0,3.6-1.6,3.6-3.6l0,0
	c0-2-1.6-3.6-3.6-3.6h-25.1c6.7-6.9,10.7-16.5,10-27c-1.2-17.6-15.5-31.6-33.1-32.6c-20.2-1.1-37,15-37,35c0,9.6,3.8,18.2,10.1,24.6
	h-35.4L422-21.7c12.4-3.8,21.5-15.2,21.8-28.8c0.3-16.4-12.5-30.4-28.9-31.4c-8.7-0.5-16.9,2.6-23.1,8.4c-1.6,1.5-1.4,4,0.3,5.4l0,0
	c1.4,1.1,3.4,1,4.8-0.2c4.7-4.4,11-6.8,17.6-6.4c12.4,0.7,22.1,11.1,22.2,23.5c0,13-10.5,23.6-23.5,23.6c-12.5,0-23-10-23.6-22.5
	c-0.1-1.7,0-3.3,0.3-4.9c0.3-1.8-0.8-3.5-2.5-4l0,0c-2.1-0.6-4.2,0.7-4.6,2.8c-0.3,1.7-0.4,3.4-0.4,5.1c0,8.1,3.2,15.5,8.3,21
	c-2.2,3-3.4,6.5-3.4,10.3c0,1.3,0.2,2.6,0.5,4l8.3,33.8c1,4.2,3.9,7.6,7.7,9.3c-6.3,2.5-12.8,4.8-25.1,4.8c-3,0-5.8-0.1-8.5-0.4
	c-2-0.2-3.8,1.1-4.1,3c-0.3,2,1.2,3.9,3.2,4.1c3,0.3,6.1,0.5,9.4,0.5c14.8,0,22.3-3.1,29.6-6c4.8-2,9.3-3.8,16-4.8h15
	c6.9,0,12.4,5.6,12.4,12.4V61c-4.3,1.1-9.5,1.9-16.6,1.9c-13.4,0-19.9-2.7-26.9-5.5c-7.3-3-14.8-6-29.6-6c-3.3,0-6.4,0.2-9.3,0.5
	c-1.8,0.2-3.3,1.7-3.3,3.5c0,2.2,1.9,3.9,4,3.6c2.7-0.3,5.6-0.4,8.7-0.4c13.4,0,19.9,2.7,26.9,5.5c7.3,3,14.8,6,29.6,6
	c14.8,0,22.3-3.1,29.6-6c6.9-2.8,13.5-5.5,26.9-5.5c13.4,0,19.9,2.7,26.9,5.5c7.3,3,14.8,6,29.6,6s22.3-3.1,29.6-6
	c6.9-2.8,13.5-5.5,26.9-5.5c2,0,3.6-1.7,3.6-3.7C607.9,52.9,606.2,51.3,604.3,51.3z M501.7,13.8c-4.4,2.8-9.5,4.2-14.8,4.2
	c-5.9,0-11.4-1.8-16.1-5.1c0.1-3.8-0.3-7.1-0.8-9.6h2c4.5,2.1,9.6,3.3,14.9,3.3c5.3,0,10.3-1.2,14.9-3.3h0.7
	C502,6,501.6,9.6,501.7,13.8z M460.2-20.5c2-12.1,13.3-21.2,26.7-21.2c13.4,0,24.7,9.1,26.7,21.2C510.2-9,499.6-0.6,487-0.6
	C474.4-0.6,463.7-9,460.2-20.5z M487-56.3c12.4,0,22.9,8.1,26.5,19.3c-6.3-7.2-15.9-11.8-26.5-11.8c-10.6,0-20.2,4.6-26.5,11.8
	C464.1-48.2,474.6-56.3,487-56.3z M439.3,21.1h-30.1c-2.9,0-5.4-2-6.1-4.9l-8.3-33.8c-0.2-0.8-0.3-1.6-0.3-2.3c0-2,0.6-4,1.7-5.6
	c4.9,3.2,10.7,5.1,17,5.1c0.6,0,1.3,0,1.9-0.1l5.3,21c0.4,1.6,1.8,2.7,3.5,2.7h39c1.2,5.2,2.7,17.7-5.5,29.6
	C454.2,26,447.3,21.1,439.3,21.1z M461.9,57.4c-1,0.4-2,0.8-3.1,1.2V42.2c6.6-7,9.8-14.5,11.1-21.3c5.2,2.9,11,4.4,17,4.4
	c5.5,0,10.9-1.3,15.7-3.7c1.4,6.6,4.6,13.9,11,20.7l0.1,12.4c-5.5-1.8-12.2-3.2-22.3-3.2C476.7,51.3,469.2,54.4,461.9,57.4z"/>
<path d="M495.8-31.5c-2,0-3.6,1.6-3.6,3.6v4c0,2,1.6,3.6,3.6,3.6s3.6-1.6,3.6-3.6v-4C499.4-29.9,497.8-31.5,495.8-31.5z"/>
<path d="M478.1-31.5c-2,0-3.6,1.6-3.6,3.6v4c0,2,1.6,3.6,3.6,3.6c2,0,3.6-1.6,3.6-3.6v-4C481.7-29.9,480.1-31.5,478.1-31.5z"/>
</svg>
