<?xml version="1.0" encoding="utf-8"?>
<!-- Generator: Adobe Illustrator 19.0.0, SVG Export Plug-In . SVG Version: 6.00 Build 0)  -->
<svg version="1.1" id="Capa_1" xmlns="http://www.w3.org/2000/svg" xmlns:xlink="http://www.w3.org/1999/xlink" x="0px" y="0px"
	 viewBox="362 -100 250 250" style="enable-background:new 362 -100 250 250;" xml:space="preserve">
<style type="text/css">
	.st0{fill:#E6EFF5;}
	.st1{fill:#B4CBDB;}
	.st2{fill:#FF3606;}
	.st3{fill:#C98C4F;}
	.st4{fill:#AF6A3A;}
	.st5{fill:#254D87;}
</style>
<g>
	<path class="st0" d="M549.7-19.2c-0.9-3.3-8.3-10.7-8.3-10.7s0-6.7,0-13.5c0-19.8-15.7-43.4-54.4-43.4s-54.4,23.6-54.4,43.4v13.5
		c0,0-7.5,7.4-8.3,10.7c-2,7.4,0.5,26.8,5.9,32.4c3.8,4,19.1,6.5,19.1,6.5h75.5c0,0,15.3-2.6,19.1-6.5
		C549.2,7.6,551.8-11.7,549.7-19.2z"/>
	<path class="st1" d="M549.7-19.2c-0.9-3.3-8.3-10.7-8.3-10.7s0-6.7,0-13.5c0-19.8-15.7-43.4-54.4-43.4c-2,0-4,0.1-5.9,0.2
		c34.4,2.3,48.5,24.4,48.5,43.2v13.5c0,0,7.5,7.4,8.3,10.7c2,7.4-0.5,26.8-5.9,32.4c-3.8,4-19.1,6.5-19.1,6.5h11.8
		c0,0,15.3-2.6,19.1-6.5C549.2,7.6,551.8-11.7,549.7-19.2z"/>
	<path class="st2" d="M476.1-86c-0.9,22.2-6.8,32.1-16.8,38h55.5c-10-5.8-15.9-15.8-16.8-38c-3.4-0.4-7.1-0.7-10.9-0.7
		S479.5-86.5,476.1-86z"/>
	<path class="st3" d="M557.1,85.6v30.9c0,2.5-1.4,4.7-3.6,5.8c-18.7,9.1-41.7,14.4-66.5,14.4c-24.9,0-47.8-5.4-66.5-14.4
		c-2.2-1.1-3.6-3.3-3.6-5.8V85.6c0-4.1,2.4-7.8,6.1-9.4l31.2-13.8c3.7-1.6,6-5.2,6-9.2V19.6h53.5v33.7c0,4,2.4,7.6,6,9.2L551,76.2
		C554.7,77.9,557.1,81.6,557.1,85.6z"/>
	<path class="st4" d="M551,76.2l-31.2-13.8c-3.7-1.6-6-5.2-6-9.2V19.6h-53.5V25H503v33.7c0,4,2.4,7.6,6,9.2l31.2,13.8
		c3.7,1.6,6.1,5.3,6.1,9.4v30.9c0,1.6-0.6,3.1-1.6,4.2c3-1.2,5.9-2.5,8.8-3.9c2.2-1.1,3.6-3.3,3.6-5.8V85.6
		C557.1,81.6,554.7,77.9,551,76.2z"/>
	<path class="st4" d="M513.7,52.9V19.6h-53.5v22.6c8.2,9.7,18.6,17.1,26.4,17.1h11.9C503,59.2,508.4,56.8,513.7,52.9z"/>
	<path class="st3" d="M448,22.2c-3.8-6.4-6.2-13.2-6.2-19.2c0,0,0-7.7,0-24c0-51.1,90.3-51.1,90.3,0c0,20.9,0,24,0,24
		c0,19.3-24.5,45.7-39.3,45.7h-11.9c-7.4,0-17.1-6.5-25.1-15.5"/>
	<path class="st4" d="M532.2-21c0-10.8-4.1-19.4-10.5-25.6c0,17.3,0,49.6,0,49.6c0,19.3-24.5,45.7-39.3,45.7h10.5
		c14.8,0,39.3-26.4,39.3-45.7C532.2,3,532.2-0.2,532.2-21z"/>
	<path class="st2" d="M431.9,127.1c16.3,6.1,35.1,9.6,55.1,9.6c20,0,38.8-3.5,55.1-9.6c-0.7-10.4-9.1-19.9-9.9-28
		c-0.6-6.3,2.3-19.1,4.9-29l-10.8-4.7c-0.6,16.7-8.5,37.5-39.4,37.5c-30.8,0-38.8-20.8-39.4-37.5l-10.8,4.7c2.6,10,5.5,22.7,4.9,29
		C441,107.2,432.6,116.7,431.9,127.1z"/>
	<path class="st5" d="M525.2,75l9.7,4.3c0.7-3.1,1.5-6.3,2.3-9.2l-10.8-4.7C526.2,68.5,525.9,71.8,525.2,75z"/>
	<path d="M557.1,92.4c1.9,0,3.4-1.5,3.4-3.4v-3.4c0-5.4-3.2-10.3-8.1-12.5l-13.8-6.1c0,0,0,0-0.1,0c-1.6-0.7,6.1,2.7-17.4-7.7
		c-2.4-1.1-4-3.5-4-6.1V39c1.2-1.2,2.4-2.4,3.5-3.7c3.8-4.2,6.9-8.7,9.3-13.2c8.5-1.9,14-4.1,16.4-6.6c6.4-6.7,8.9-27.4,6.7-35.6
		c-0.9-3.3-5.7-8.6-8.2-11.2v-12.1c0-22.5-18.1-46.7-57.8-46.7c-14.8,0-27.4,3.3-37.3,9.9c-1.6,1-2,3.1-1,4.7c1,1.6,3.1,2,4.7,1
		c5.4-3.6,11.8-6.1,19-7.4c-0.8,10.2-2.8,17.6-6.2,22.9c-4.5,1.7-8.7,3.9-12.3,6.6C443.8-44.8,438.5-34,438.5-21c0,16.2,0,23.9,0,24
		c0,3.5,0.7,7.3,2.1,11.3c-4.7-1.3-7.2-2.6-8-3.4c-3.7-3.8-7.2-21.3-5-29.2c0.4-1.3,3.9-5.6,7.5-9.2c0.6-0.6,1-1.5,1-2.4v-13.5
		c0-8.1,2.9-16.2,8.1-22.8c1.2-1.5,0.9-3.6-0.5-4.7c-1.5-1.2-3.6-0.9-4.7,0.5c-6.2,7.7-9.6,17.3-9.6,27v12.1
		c-2.5,2.6-7.3,7.9-8.2,11.2c-2.2,8.2,0.2,28.8,6.7,35.6c2.4,2.5,7.9,4.7,16.4,6.6c0.3,0.6,0.7,1.2,1,1.8c0.9,1.6,3,2.1,4.6,1.2
		c1.6-0.9,2.1-3,1.2-4.6c-3.7-6.4-5.7-12.4-5.7-17.5c0-0.1,0-7.9,0-24c0-35.2,47.5-43.6,70.8-26c8.4,6.3,12.8,15.3,12.8,26
		c0,20,0,23.7,0,24c0,8-5.1,18.6-13.2,27.8c-2.5,2.8-4.1,4.2-4.3,4.5c-11.9,11.2-19.2,9.9-19.5,10c-0.1,0-10.6,0-10.7,0
		c-7.7,0-17.2-8.4-22.6-14.4c-1.2-1.4-3.4-1.5-4.8-0.3c-1.4,1.2-1.5,3.4-0.3,4.8c1.1,1.3,2.3,2.5,3.4,3.6v14.2c0,2.7-1.6,5.1-4,6.1
		c-1.6,0.7,6.1-2.7-17.4,7.7c0,0,0,0-0.1,0l-13.8,6.1c-4.9,2.2-8.1,7.1-8.1,12.5v30.9c0,3.7,2.2,7.2,5.5,8.8
		c40.5,19.7,95.4,19.7,136,0c3.3-1.6,5.5-5.1,5.5-8.8v-14c0-1.9-1.5-3.4-3.4-3.4s-3.4,1.5-3.4,3.4v14c0,1.2-0.7,2.2-1.7,2.7
		c-2.4,1.1-4.8,2.2-7.2,3.2c-1.1-4.6-3.2-8.9-5.1-12.9c-1.9-4-3.8-7.7-4.1-10.8c-0.4-4.1,1-12.6,3.8-24l10.2,4.5
		c2.5,1.1,4.1,3.6,4.1,6.3V89C553.8,90.8,555.3,92.4,557.1,92.4z M475-61.6c2.3-5.7,3.7-12.7,4.3-21.4c2.5-0.2,5.1-0.3,7.7-0.3
		c2.7,0,5.2,0.1,7.7,0.4c0.6,8.7,1.9,15.7,4.3,21.4C491.2-63.1,482.8-63.1,475-61.6z M520.1-52.5c-3.6-2.7-7.8-5-12.3-6.6
		c-3.4-5.3-5.5-12.7-6.2-22.9c23.7,4.6,36.5,21,36.5,38.7v13.5c0,0.9,0.4,1.8,1,2.4c3.6,3.6,7.1,7.9,7.5,9.2
		c2.1,7.8-1.4,25.3-5,29.2c-0.8,0.8-3.3,2.1-8,3.4c1.4-4,2.1-7.8,2.1-11.3c0,0,0,0,0,0c0,0,0-3.4,0-24
		C535.5-34,530.2-44.8,520.1-52.5z M498.9,62.9c-0.5,0.3-2.7-0.7-4.7-4.6c-1-1.9-0.8-4-0.4-5.5c1.5,0.6,3.2,1.7,4.2,3.6
		C500,60.3,499.5,62.6,498.9,62.9z M487,52.1C487,52.1,487,52.1,487,52.1L487,52.1C487,52.1,487,52.1,487,52.1z M476,56.3
		c1-1.9,2.8-3,4.2-3.6c0.4,1.5,0.6,3.6-0.4,5.6c-2,3.9-4.2,4.9-4.7,4.6C474.5,62.6,474,60.3,476,56.3z M455.6,65.6
		c4.9-2.1,8-7,8-12.3v-8.4c2.9,2.2,5.9,3.9,8.7,5.1c-0.9,0.9-1.7,2-2.3,3.3c-4.1,8-1.9,13.6,2,15.6c1,0.5,2.1,0.8,3.3,0.8
		c3.5,0,7.5-2.4,10.5-8.4c0.6-1.1,0.9-2.2,1.2-3.3c0.2,1.1,0.6,2.2,1.2,3.3c3,6,7,8.4,10.5,8.4c1.2,0,2.3-0.3,3.3-0.8
		c3.9-2,6.1-7.6,2-15.6c0,0,0,0,0,0c-0.6-1.3-1.4-2.3-2.3-3.2c2.8-1.2,5.8-2.9,8.7-5.1v8.4c0,5.3,3.2,10.2,8,12.3l4.5,2
		c-0.5,6.3-2.2,14.3-7.5,20.8c-6.1,7.5-15.6,11.3-28.4,11.3s-22.3-3.8-28.4-11.3c-5.2-6.4-7-14.5-7.5-20.8L455.6,65.6z M420.2,116.5
		V85.6c0-2.7,1.6-5.2,4.1-6.3l10.2-4.5c2.9,11.4,4.2,19.9,3.8,24c-0.3,3.1-2.1,6.8-4.1,10.8c-1.9,3.9-4,8.2-5.1,12.9
		c-2.5-1-4.9-2.1-7.2-3.2C420.9,118.7,420.2,117.7,420.2,116.5z M528.9,99.5c0.4,4.3,2.5,8.6,4.7,13.1c2,4,4,8.1,4.8,12.3
		c-32.2,11.3-70.8,11.2-102.9,0c0.8-4.1,2.9-8.3,4.8-12.3c2.2-4.5,4.3-8.8,4.7-13.1c0.5-5.2-0.9-14.4-4.3-27.4l3.8-1.7
		c0.8,6.9,3.1,15.2,8.7,22.2c7.4,9.1,18.7,13.8,33.6,13.8s26.2-4.6,33.6-13.8c5.6-6.9,7.9-15.2,8.7-22.2l3.8,1.7
		C529.8,85.1,528.4,94.3,528.9,99.5z"/>
	<path d="M463.9-7.1v1.4c0,1.9,1.5,3.4,3.4,3.4c1.9,0,3.4-1.5,3.4-3.4v-1.4c0-1.9-1.5-3.4-3.4-3.4C465.4-10.5,463.9-9,463.9-7.1z"/>
	<path d="M503.3-7.1v1.4c0,1.9,1.5,3.4,3.4,3.4c1.9,0,3.4-1.5,3.4-3.4v-1.4c0-1.9-1.5-3.4-3.4-3.4C504.9-10.5,503.3-9,503.3-7.1z"/>
	<path d="M513.9-15.4c1.2,0,2.4-0.7,3-1.9c0.8-1.7,0.1-3.7-1.5-4.5c-6-3-12.1-3-18.1,0c-1.7,0.8-2.4,2.8-1.5,4.5s2.8,2.4,4.5,1.5
		c4.1-2,8.1-2,12.2,0C512.9-15.6,513.4-15.4,513.9-15.4z"/>
	<path d="M476.7-21.8c-6-3-12.1-3-18.1,0c-1.7,0.8-2.4,2.8-1.5,4.5c0.8,1.7,2.8,2.4,4.5,1.5c4.1-2,8.1-2,12.2,0
		c0.5,0.2,1,0.3,1.5,0.3c1.2,0,2.4-0.7,3-1.9C479-19,478.4-21,476.7-21.8z"/>
	<path d="M487,26.1c-2.9,0-5.6-0.9-8-2.5c-1.5-1.1-3.6-0.7-4.7,0.8c-1.1,1.5-0.7,3.6,0.8,4.7c3.5,2.5,7.6,3.8,11.9,3.8
		s8.3-1.3,11.9-3.8c1.5-1.1,1.9-3.2,0.8-4.7c-1.1-1.5-3.2-1.9-4.7-0.8C492.6,25.2,489.9,26.1,487,26.1z"/>
</g>
</svg>
