<?xml version="1.0" encoding="utf-8"?>
<!-- Generator: Adobe Illustrator 19.0.0, SVG Export Plug-In . SVG Version: 6.00 Build 0)  -->
<svg version="1.1" id="Capa_1" xmlns="http://www.w3.org/2000/svg" xmlns:xlink="http://www.w3.org/1999/xlink" x="0px" y="0px"
	 viewBox="0 0 50 50" style="enable-background:new 0 0 50 50;" xml:space="preserve">
<style type="text/css">
	.st0{fill:#1D1D1B;}
	.st1{fill:#FFFFFF;}
</style>
<g id="XMLID_29_">
	<g id="XMLID_80_">
		<g id="XMLID_89_">
			<path id="XMLID_28_" class="st0" d="M46.6,10.4c0-1.2-0.1-2.4-0.2-3.5C40,4.1,32.8,2.6,25.3,2.6c-7.5,0-14.6,1.5-21.1,4.2
				C4.1,8,4.1,9.2,4.1,10.4c0,15.5,8.6,29,21.3,36C38,39.3,46.6,25.9,46.6,10.4z"/>
		</g>
		<g id="XMLID_85_">
			<path id="XMLID_86_" class="st0" d="M25.3,47.4l-0.5-0.3C11.5,39.8,3.1,25.7,3.1,10.4c0-1.2,0.1-2.4,0.2-3.6l0-0.6L3.9,6
				c6.8-2.8,14-4.3,21.5-4.3C32.8,1.7,40,3.1,46.8,6l0.5,0.2l0,0.6c0.1,1.2,0.2,2.4,0.2,3.6c0,15.3-8.3,29.4-21.8,36.8L25.3,47.4z
				 M5.1,7.5C5.1,8.5,5,9.4,5,10.4c0,14.4,7.8,27.8,20.3,34.9c12.5-7.1,20.3-20.5,20.3-34.9c0-0.9,0-1.9-0.1-2.9
				c-6.4-2.6-13.2-3.9-20.2-3.9C18.3,3.6,11.6,4.9,5.1,7.5z"/>
		</g>
		<g id="XMLID_81_">
			<path id="XMLID_82_" class="st1" d="M25.3,46.7l-0.2-0.1C12,39.3,3.8,25.4,3.8,10.4c0-1.2,0.1-2.3,0.2-3.5l0-0.2l0.2-0.1
				C10.8,3.7,18,2.3,25.3,2.3c7.4,0,14.5,1.4,21.2,4.2l0.2,0.1l0,0.2c0.1,1.2,0.2,2.4,0.2,3.5c0,15.1-8.2,29-21.4,36.3L25.3,46.7z
				 M4.5,7.1c-0.1,1.1-0.1,2.2-0.1,3.3c0,14.8,8,28.4,20.9,35.6c12.9-7.2,20.9-20.8,20.9-35.6c0-1.1,0-2.2-0.1-3.3
				c-6.6-2.7-13.6-4.1-20.8-4.1C18.1,2.9,11.1,4.3,4.5,7.1z"/>
		</g>
	</g>
	<g id="XMLID_40_">
		<g id="XMLID_48_">
			<g id="XMLID_75_">
				<circle id="XMLID_23_" class="st1" cx="25.3" cy="31.2" r="10.3"/>
				<path id="XMLID_76_" class="st1" d="M25.3,41.6c-5.8,0-10.4-4.7-10.4-10.4s4.7-10.4,10.4-10.4c5.8,0,10.4,4.7,10.4,10.4
					S31.1,41.6,25.3,41.6z M25.3,21.1c-5.6,0-10.1,4.5-10.1,10.1s4.5,10.1,10.1,10.1c5.6,0,10.1-4.5,10.1-10.1S30.9,21.1,25.3,21.1z
					"/>
			</g>
			<g id="XMLID_70_">
				<g id="XMLID_73_">
					
						<rect id="XMLID_20_" x="22.9" y="36.8" transform="matrix(0.9758 0.2187 -0.2187 0.9758 9.1521 -4.0935)" class="st0" width="0.4" height="5.1"/>
				</g>
				<g id="XMLID_71_">
					
						<rect id="XMLID_19_" x="24.8" y="39.2" transform="matrix(0.2186 0.9758 -0.9758 0.2186 59.7961 4.0286)" class="st0" width="5.1" height="0.4"/>
				</g>
			</g>
			<g id="XMLID_65_">
				<g id="XMLID_68_">
					
						<rect id="XMLID_18_" x="20.5" y="22.6" transform="matrix(0.2186 0.9758 -0.9758 0.2186 40.3069 -4.6628)" class="st0" width="5.1" height="0.4"/>
				</g>
				<g id="XMLID_66_">
					
						<rect id="XMLID_17_" x="27.2" y="20.2" transform="matrix(0.9758 0.2187 -0.2187 0.9758 5.6445 -5.4377)" class="st0" width="0.4" height="5.1"/>
				</g>
			</g>
			<g id="XMLID_61_">
				<path id="XMLID_62_" class="st0" d="M32.6,37H18.1l0-0.1c-0.8-1.8-1.1-3.7-1.1-5.7c0-2.1,0.4-4.1,1.2-6l0-0.1h14.3l0,0.1
					c0.8,1.9,1.2,3.9,1.2,6c0,2-0.4,3.9-1.1,5.7L32.6,37z M18.3,36.6h14c0.7-1.7,1.1-3.6,1.1-5.4c0-2-0.4-3.9-1.2-5.7H18.4
					c-0.8,1.8-1.2,3.7-1.2,5.7C17.3,33.1,17.6,34.9,18.3,36.6z"/>
			</g>
			<g id="XMLID_57_">
				<path id="XMLID_58_" class="st0" d="M25.5,34.1c-2.8,0-5.6-0.3-8.4-0.8l-0.1,0l0-0.1c-0.1-0.6-0.1-1.3-0.1-1.9
					c0-0.7,0-1.3,0.1-2l0-0.1l0.1,0c5.4-1,11-1,16.3,0.1l0.1,0l0,0.1c0.1,0.6,0.1,1.3,0.1,1.9c0,0.7,0,1.3-0.1,2l0,0.1l-0.1,0
					C30.9,33.8,28.2,34.1,25.5,34.1z M17.4,32.9c5.2,1,10.7,1,15.9,0.1c0.1-0.6,0.1-1.2,0.1-1.8c0-0.6,0-1.2-0.1-1.7
					c-5.2-1-10.7-1-15.9-0.1c-0.1,0.6-0.1,1.2-0.1,1.8C17.3,31.8,17.3,32.4,17.4,32.9z"/>
			</g>
			<g id="XMLID_55_">
				<rect id="XMLID_12_" x="18.1" y="22.6" class="st0" width="0.4" height="2.7"/>
			</g>
			<g id="XMLID_53_">
				<rect id="XMLID_11_" x="18" y="36.8" class="st0" width="0.4" height="2.3"/>
			</g>
			<g id="XMLID_51_">
				<rect id="XMLID_10_" x="32.3" y="36.8" class="st0" width="0.4" height="2.3"/>
			</g>
			<g id="XMLID_49_">
				<rect id="XMLID_9_" x="32.1" y="22.7" class="st0" width="0.4" height="2.6"/>
			</g>
		</g>
		<g id="XMLID_41_">
			<rect id="XMLID_8_" x="22.5" y="24.7" class="st1" width="6.6" height="14.8"/>
			<g id="XMLID_42_">
				<path id="XMLID_43_" class="st0" d="M22.8,39.4V22.7h2.7c0.9,0,1.5,0.2,1.9,0.7c0.4,0.4,0.6,1.2,0.6,2.2V29c0,1-0.3,1.7-1,1.8
					c0.3,0.1,0.6,0.2,0.9,0.5c0.2,0.3,0.4,0.7,0.4,1.3v4c0,1-0.2,1.7-0.7,2.1c-0.4,0.4-1.1,0.7-2,0.7H22.8z M26.4,25.6
					c0-0.5-0.1-0.8-0.2-1c-0.2-0.2-0.4-0.3-0.8-0.3h-1.1v5.9h1.1c0.4,0,0.6-0.1,0.8-0.3c0.2-0.2,0.2-0.5,0.2-0.9V25.6z M26.5,32.9
					c0-0.5-0.1-0.8-0.2-1c-0.1-0.2-0.4-0.3-0.9-0.3h-1.1v6.3h1.1c0.7,0,1.1-0.4,1.1-1.3V32.9z"/>
			</g>
		</g>
	</g>
	<g id="XMLID_30_">
		<g id="XMLID_31_">
			<path id="XMLID_38_" class="st1" d="M14.4,19.5c-0.1-0.5-0.2-1-0.3-1.6c-0.1-0.6-0.2-1.2-0.3-1.9c-0.1-0.7-0.2-1.3-0.3-2
				c-0.1-0.7-0.2-1.3-0.3-1.8c-0.1-0.6-0.2-1.1-0.2-1.5c-0.1-0.4-0.1-0.7-0.1-0.9c0,0.2-0.1,0.5-0.1,1c-0.1,0.4-0.1,1-0.2,1.6
				c-0.1,0.6-0.2,1.3-0.3,2c-0.1,0.7-0.2,1.4-0.4,2.1c-0.1,0.7-0.3,1.4-0.4,2.1c-0.1,0.7-0.2,1.2-0.4,1.8c-1.1,0.3-1.6,0.4-2.6,0.7
				c-0.9-4.2-1.7-8.4-2.6-12.7C6.7,8,7.1,7.9,8,7.6c0.1,0.5,0.2,1.1,0.4,1.7c0.1,0.6,0.2,1.3,0.4,2c0.1,0.7,0.2,1.4,0.3,2
				c0.1,0.7,0.2,1.3,0.3,1.9c0.1,0.6,0.2,1.1,0.3,1.5c0.1,0.4,0.1,0.8,0.2,1c0-0.2,0.1-0.6,0.2-1.1c0.1-0.5,0.2-1,0.3-1.7
				c0.1-0.6,0.2-1.3,0.4-2c0.1-0.7,0.3-1.5,0.4-2.2c0.1-0.8,0.3-1.5,0.4-2.2c0.1-0.7,0.3-1.4,0.4-1.9c0.9-0.2,1.3-0.3,2.2-0.5
				c0.6,3.4,1.2,6.9,1.8,10.3c0-0.2,0.1-0.6,0.2-1c0.1-0.5,0.2-1,0.3-1.6c0.1-0.6,0.2-1.3,0.4-2c0.1-0.7,0.3-1.4,0.4-2.2
				c0.1-0.7,0.3-1.5,0.4-2.2c0.1-0.7,0.3-1.3,0.4-1.9c0.9-0.1,1.4-0.2,2.3-0.3c-1,4.6-2,9.2-3,13.9C16,19.2,15.5,19.3,14.4,19.5z"/>
			<path id="XMLID_36_" class="st1" d="M21.5,18.6c0-4.5,0-9,0-13.5c2.1-0.1,4.2-0.2,6.3,0c0,0.5,0,0.8,0,1.3
				c-1.4-0.1-2.8-0.1-4.1-0.1c0,1.6,0,3.2,0,4.8c1.2,0,1.7,0,2.9,0c0,0.5,0,0.7,0,1.2c-1.2,0-1.7,0-2.9,0c0,1.7,0,3.4,0,5
				c1.4,0,2.8,0,4.3,0.1c0,0.5,0,0.7,0,1.2C25.9,18.5,23.7,18.5,21.5,18.6z"/>
			<path id="XMLID_34_" class="st1" d="M31.6,18.9c0-4.1,0-8.2,0-12.3C30.6,6.5,30,6.4,29,6.4c0-0.5,0-0.8,0-1.3
				c2.5,0.2,5,0.5,7.5,1c0,0.5,0,0.8,0,1.3c-1.1-0.2-1.6-0.3-2.6-0.5c0,4.1,0,8.2,0,12.3C32.9,19,32.5,19,31.6,18.9z"/>
			<path id="XMLID_32_" class="st1" d="M42.3,17.1c0-0.2,0-0.4,0-0.5c0-0.1-0.1-0.3-0.1-0.4c-0.1-0.1-0.1-0.2-0.2-0.3
				c-0.1-0.1-0.2-0.2-0.3-0.4c-0.6-0.6-1.3-1.2-2-1.8c-0.7-0.6-1.3-1-1.7-1.5c-0.2-0.2-0.3-0.3-0.4-0.5c-0.1-0.1-0.2-0.3-0.2-0.4
				c-0.1-0.1-0.1-0.3-0.1-0.5c0-0.2,0-0.4,0-0.6c0-0.8,0-1.2,0-2c0-1.9,2.5-1.7,3.7-1.3c1.2,0.4,2.1,0.8,2.7,1.4
				c0.5,0.5,0.8,1.2,0.8,2c0,1,0,1.5,0,2.5c-0.8-0.3-1.2-0.4-2-0.7c0-0.9,0-1.4,0-2.3c0-0.3-0.1-0.6-0.3-0.9
				c-0.2-0.3-0.6-0.5-1.2-0.7c-1-0.3-1.5-0.1-1.5,0.6c0,0.8,0,1.2,0,2c0,0.3,0,0.5,0.1,0.7c0.1,0.1,0.2,0.3,0.4,0.5
				c0.2,0.3,0.5,0.5,0.9,0.8c0.3,0.3,0.6,0.6,1,0.9c0.3,0.3,0.6,0.6,0.9,0.8c0.3,0.3,0.6,0.5,0.8,0.8c0.2,0.2,0.3,0.4,0.5,0.6
				c0.1,0.2,0.2,0.4,0.3,0.5c0.1,0.2,0.1,0.4,0.2,0.6c0,0.2,0.1,0.5,0.1,0.8c0,0.8,0,1.2,0,1.9c0,0.7-0.3,1.2-0.8,1.4
				c-0.5,0.2-1.5,0.1-2.8-0.3c-1.3-0.4-2.2-0.8-2.8-1.3c-0.6-0.5-0.9-1.1-0.9-1.9c0-1.2,0-1.7,0-2.9c0.8,0.2,1.3,0.3,2.1,0.5
				c0,1.1,0,1.6,0,2.7c0,0.4,0.1,0.7,0.3,0.9c0.2,0.3,0.6,0.5,1.2,0.7c0.5,0.2,0.9,0.2,1.1,0.1c0.2-0.1,0.3-0.3,0.3-0.6
				C42.3,18.3,42.3,17.9,42.3,17.1z"/>
		</g>
	</g>
</g>
</svg>
