<svg id="Capa_1" enable-background="new 0 0 512 512" height="512" viewBox="0 0 512 512" width="512" xmlns="http://www.w3.org/2000/svg"><path d="m410.5 367.473v52.527c0 50.81-41.19 92-92 92h-125c-50.81 0-92-41.19-92-92v-52.527c0-5.523 4.477-10 10-10h95.06c10.239 0 18.54-8.301 18.54-18.54v-51.646h61.8v51.643c0 10.241 8.302 18.543 18.543 18.543h95.057c5.523 0 10 4.477 10 10z" fill="#ebad88"/><path d="m275.443 357.473h30c-10.241 0-18.543-8.302-18.543-18.543v-51.643h-30v51.643c0 10.241 8.302 18.543 18.543 18.543z" fill="#e8916f"/><path d="m400.5 357.473h-30c5.523 0 10 4.477 10 10v52.527c0 50.81-41.19 92-92 92h30c50.81 0 92-41.19 92-92v-52.527c0-5.523-4.477-10-10-10z" fill="#e8916f"/><path d="m144.76 212.643v-82.654c0-57.946 46.975-104.921 104.921-104.921h12.638c57.946 0 104.921 46.975 104.921 104.921v82.654c0 61.401-49.776 111.177-111.177 111.177h-.126c-61.401 0-111.177-49.775-111.177-111.177z" fill="#ebad88"/><path d="m262.328 25.068h-12.656c-3.074 0-6.115.14-9.122.399 53.669 4.624 95.79 49.654 95.79 104.531v82.635c0 56.187-41.673 102.632-95.79 110.123 5.027.696 10.159 1.064 15.377 1.064h.145c61.396 0 111.167-49.78 111.167-111.187v-82.635c.001-57.951-46.97-104.93-104.911-104.93z" fill="#e8916f"/><g fill="#d98868"><path d="m278.669 238.948c-1.114-3.989-5.252-6.32-9.241-5.206-8.028 2.245-18.822 2.243-26.856 0-3.992-1.115-8.127 1.217-9.241 5.207-1.114 3.989 1.217 8.126 5.207 9.24 5.387 1.504 11.425 2.256 17.464 2.256s12.077-.752 17.461-2.256c3.989-1.114 6.32-5.251 5.206-9.241z"/><path d="m182.87 458.657h-10.3c-4.142 0-7.5 3.357-7.5 7.5s3.358 7.5 7.5 7.5h10.3c4.142 0 7.5-3.357 7.5-7.5s-3.358-7.5-7.5-7.5z"/><path d="m339.43 458.657h-10.3c-4.143 0-7.5 3.357-7.5 7.5s3.357 7.5 7.5 7.5h10.3c4.143 0 7.5-3.357 7.5-7.5s-3.358-7.5-7.5-7.5z"/></g><path d="m384.905 107.396c-1.638 0-3.016-1.224-3.195-2.853-4.434-40.153-26.939-104.543-125.71-104.543s-121.276 64.39-125.709 104.544c-.18 1.628-1.557 2.853-3.195 2.853-7.31 0-13.235 5.926-13.235 13.235v101.274c0 7.308 5.925 13.233 13.233 13.233h11.667c3.314 0 6-2.686 6-6v-76.021c0-20.986 11.35-40.341 29.691-50.538 21.348-11.87 49.321-22.35 81.548-22.35s60.2 10.48 81.549 22.35c18.341 10.198 29.691 29.553 29.691 50.538v76.021c0 3.314 2.686 6 6 6h11.667c7.308 0 13.233-5.925 13.233-13.233v-101.274c0-7.31-5.926-13.236-13.235-13.236z" fill="#7e57c2"/><path d="m384.836 107.397c-1.613.008-2.949-1.246-3.126-2.849-4.432-40.154-26.936-104.548-125.71-104.548-5.64 0-11.02.22-16.173.623 75.981 6.515 101.284 63.208 110.988 95.228 2.563 8.457 6.133 16.568 10.598 24.194 3.816 6.517 5.827 13.933 5.827 21.485v87.608c0 3.314 2.686 6 6 6h11.667c7.308 0 13.233-5.925 13.233-13.233v-101.273c0-7.334-5.963-13.274-13.304-13.235z" fill="#673ab7"/></svg>